<?xml version="1.0" encoding="utf-8"?>
<!-- Generator: Adobe Illustrator 17.0.0, SVG Export Plug-In . SVG Version: 6.00 Build 0)  -->
<!DOCTYPE svg PUBLIC "-//W3C//DTD SVG 1.1//EN" "http://www.w3.org/Graphics/SVG/1.1/DTD/svg11.dtd">
<svg version="1.1" xmlns="http://www.w3.org/2000/svg" xmlns:xlink="http://www.w3.org/1999/xlink" x="0px" y="0px"
	 width="357.927px" height="88.233px" viewBox="0 0 357.927 88.233" enable-background="new 0 0 357.927 88.233"
	 xml:space="preserve">
<g id="Capa_3">
	<rect x="690.212" y="0" fill="#223B7E" width="359.447" height="88.233"/>
	<rect x="1668.505" y="0" fill="#223B7E" width="366.936" height="88.233"/>
</g>
<g id="Capa_1">
	<g>
		<path fill="#223B7E" d="M38.116,15.592c0-1.574,1.278-2.851,2.854-2.851c1.575,0,2.85,1.277,2.85,2.851
			c0,1.577-1.275,2.854-2.85,2.854C39.394,18.446,38.116,17.169,38.116,15.592"/>
		<path fill="#223B7E" d="M32.447,15.474c0-1.136,0.921-2.058,2.058-2.058c1.136,0,2.061,0.922,2.061,2.058
			c0,1.139-0.925,2.061-2.061,2.061C33.368,17.535,32.447,16.613,32.447,15.474"/>
		<path fill="#223B7E" d="M45.278,15.474c0-1.136,0.923-2.058,2.061-2.058c1.134,0,2.058,0.922,2.058,2.058
			c0,1.139-0.924,2.061-2.058,2.061C46.201,17.535,45.278,16.613,45.278,15.474"/>
		<path fill="#223B7E" d="M27.95,15.591c0-0.861,0.698-1.556,1.557-1.556c0.861,0,1.558,0.695,1.558,1.556
			c0,0.86-0.697,1.559-1.558,1.559C28.648,17.15,27.95,16.451,27.95,15.591"/>
		<path fill="#223B7E" d="M50.765,15.591c0-0.861,0.697-1.556,1.557-1.556c0.858,0,1.557,0.695,1.557,1.556
			c0,0.86-0.699,1.559-1.557,1.559C51.462,17.15,50.765,16.451,50.765,15.591"/>
		<path fill="#223B7E" d="M64.29,25.185l0.001,33.811c0.007,0.267,0.079,5.664-5.692,5.664c-4.979,0-11.172,0.194-17.631,2.75
			c-6.457-2.556-12.65-2.75-17.63-2.75c-5.772,0-5.701-5.397-5.69-5.664V40.155c0-2.761-4.141-2.761-4.141,0v18.813
			c-0.073,5.58,3.85,9.829,9.831,9.829c3.756,0,7.978,0.125,12.37,1.254c-2.357,1.441-4.716,3.245-7.032,5.56
			c-1.953,1.954,0.975,4.881,2.928,2.929c3.083-3.083,6.238-5.177,9.366-6.621c3.126,1.444,6.28,3.538,9.364,6.621
			c1.95,1.952,4.878-0.975,2.927-2.929c-2.316-2.315-4.674-4.118-7.031-5.56c4.392-1.129,8.614-1.254,12.369-1.254
			c5.982,0,9.903-4.249,9.83-9.829V25.185C68.429,22.426,64.29,22.426,64.29,25.185"/>
	</g>
	<path fill="#223B7E" d="M50.412,41.588l3.665-6.827v13.593L50.412,41.588z M40.963,46.467l-2.577-4.879l2.577-4.867l2.574,4.867
		L40.963,46.467z M27.86,48.356V34.758l3.663,6.83L27.86,48.356z M20.944,21.409V61.77h6.882l7.179-13.874l3.381,6.494h5.151
		l3.39-6.494l7.15,13.874h6.915V21.409H54.11l-7.188,13.872l-3.385-6.487l-5.151-0.002l-3.381,6.489L27.86,21.409H20.944z"/>
	<text transform="matrix(1 0 0 1 81.6419 58.5405)"><tspan x="0" y="0" fill="#223B7E" font-family="'MyriadPro-Semibold'" font-size="10">ORD</tspan><tspan x="20.16" y="0" fill="#223B7E" font-family="'MyriadPro-Semibold'" font-size="10">E</tspan><tspan x="25.5" y="0" fill="#223B7E" font-family="'MyriadPro-Semibold'" font-size="10">N </tspan><tspan x="34.53" y="0" fill="#223B7E" font-family="'MyriadPro-Semibold'" font-size="10">D</tspan><tspan x="41.549" y="0" fill="#223B7E" font-family="'MyriadPro-Semibold'" font-size="10">E </tspan><tspan x="48.97" y="0" fill="#223B7E" font-family="'MyriadPro-Semibold'" font-size="10">L</tspan><tspan x="54.14" y="0" fill="#223B7E" font-family="'MyriadPro-Semibold'" font-size="10">A </tspan><tspan x="62.771" y="0" fill="#223B7E" font-family="'MyriadPro-Semibold'" font-size="10">C</tspan><tspan x="68.59" y="0" fill="#223B7E" font-family="'MyriadPro-Semibold'" font-size="10">O</tspan><tspan x="75.83" y="0" fill="#223B7E" font-family="'MyriadPro-Semibold'" font-size="10">M</tspan><tspan x="84.29" y="0" fill="#223B7E" font-family="'MyriadPro-Semibold'" font-size="10">P</tspan><tspan x="89.38" y="0" fill="#223B7E" font-family="'MyriadPro-Semibold'" font-size="10">AÑÍ</tspan><tspan x="105.738" y="0" fill="#223B7E" font-family="'MyriadPro-Semibold'" font-size="10">A </tspan><tspan x="114.369" y="0" fill="#223B7E" font-family="'MyriadPro-Semibold'" font-size="10">D</tspan><tspan x="121.399" y="0" fill="#223B7E" font-family="'MyriadPro-Semibold'" font-size="10">E </tspan><tspan x="128.819" y="0" fill="#223B7E" font-family="'MyriadPro-Semibold'" font-size="10">M</tspan><tspan x="137.229" y="0" fill="#223B7E" font-family="'MyriadPro-Semibold'" font-size="10">ARÍ</tspan><tspan x="152.518" y="0" fill="#223B7E" font-family="'MyriadPro-Semibold'" font-size="10">A N</tspan><tspan x="168.008" y="0" fill="#223B7E" font-family="'MyriadPro-Semibold'" font-size="10">.</tspan><tspan x="170.459" y="0" fill="#223B7E" font-family="'MyriadPro-Semibold'" font-size="10">S</tspan><tspan x="175.749" y="0" fill="#223B7E" font-family="'MyriadPro-Semibold'" font-size="10">.</tspan></text>
	<text transform="matrix(1 0 0 1 80.5632 44.5005)"><tspan x="0" y="0" fill="#223B7E" font-family="'CineplexLT-Bold'" font-size="18.8668">Co</tspan><tspan x="17.3" y="0" fill="#223B7E" font-family="'CineplexLT-Bold'" font-size="18.8668">l</tspan><tspan x="21.017" y="0" fill="#223B7E" font-family="'CineplexLT-Bold'" font-size="18.8668">e</tspan><tspan x="28.318" y="0" fill="#223B7E" font-family="'CineplexLT-Bold'" font-size="18.8668">gi</tspan><tspan x="40.148" y="0" fill="#223B7E" font-family="'CineplexLT-Bold'" font-size="18.8668">o</tspan><tspan x="47.864" y="0" fill="#223B7E" font-family="'CineplexLT-Bold'" font-size="18.8668" letter-spacing="1"> </tspan><tspan x="54.826" y="0" fill="#223B7E" font-family="'CineplexLT-Bold'" font-size="18.8668">C</tspan><tspan x="64.41" y="0" fill="#223B7E" font-family="'CineplexLT-Bold'" font-size="18.8668">om</tspan><tspan x="84.333" y="0" fill="#223B7E" font-family="'CineplexLT-Bold'" font-size="18.8668">pañ</tspan><tspan x="108.349" y="0" fill="#223B7E" font-family="'CineplexLT-Bold'" font-size="18.8668">í</tspan><tspan x="112.349" y="0" fill="#223B7E" font-family="'CineplexLT-Bold'" font-size="18.8668">a</tspan><tspan x="119.821" y="0" fill="#223B7E" font-family="'CineplexLT-Bold'" font-size="18.8668" letter-spacing="-1"> </tspan><tspan x="124.103" y="0" fill="#223B7E" font-family="'CineplexLT-Bold'" font-size="18.8668">de</tspan><tspan x="139.629" y="0" fill="#223B7E" font-family="'CineplexLT-Bold'" font-size="18.8668"> </tspan><tspan x="143.968" y="0" fill="#223B7E" font-family="'CineplexLT-Bold'" font-size="18.8668" letter-spacing="-2">M</tspan><tspan x="159.685" y="0" fill="#223B7E" font-family="'CineplexLT-Bold'" font-size="18.8668" letter-spacing="-1">ar</tspan><tspan x="172.382" y="0" fill="#223B7E" font-family="'CineplexLT-Bold'" font-size="18.8668">í</tspan><tspan x="176.419" y="0" fill="#223B7E" font-family="'CineplexLT-Bold'" font-size="18.8668">a</tspan><tspan x="183.928" y="0" fill="#223B7E" font-family="'CineplexLT-Bold'" font-size="18.8668" letter-spacing="-4">  </tspan><tspan x="185.06" y="0" fill="#223B7E" font-family="'CineplexLT-Bold'" font-size="18.8668" letter-spacing="-1"> </tspan><tspan x="188.456" y="0" fill="#223B7E" font-family="'CineplexLT-Bold'" font-size="18.8668">•</tspan><tspan x="195.455" y="0" fill="#223B7E" font-family="'CineplexLT-Bold'" font-size="18.8668" letter-spacing="-1"> </tspan><tspan x="199.227" y="0" fill="#223B7E" font-family="'CineplexLT-Bold'" font-size="18.8668">Se</tspan><tspan x="215.868" y="0" fill="#223B7E" font-family="'CineplexLT-Bold'" font-size="18.8668">mi</tspan><tspan x="232.093" y="0" fill="#223B7E" font-family="'CineplexLT-Bold'" font-size="18.8668">na</tspan><tspan x="248.017" y="0" fill="#223B7E" font-family="'CineplexLT-Bold'" font-size="18.8668">ri</tspan><tspan x="257.375" y="0" fill="#223B7E" font-family="'CineplexLT-Bold'" font-size="18.8668">o</tspan></text>
	<g>
		<path fill="#FFFFFF" d="M729.847,15.592c0-1.574,1.278-2.851,2.854-2.851c1.575,0,2.85,1.277,2.85,2.851
			c0,1.577-1.275,2.854-2.85,2.854C731.125,18.446,729.847,17.169,729.847,15.592"/>
		<path fill="#FFFFFF" d="M724.179,15.474c0-1.136,0.921-2.058,2.058-2.058c1.136,0,2.061,0.922,2.061,2.058
			c0,1.139-0.925,2.061-2.061,2.061C725.1,17.535,724.179,16.613,724.179,15.474"/>
		<path fill="#FFFFFF" d="M737.009,15.474c0-1.136,0.923-2.058,2.061-2.058c1.134,0,2.058,0.922,2.058,2.058
			c0,1.139-0.924,2.061-2.058,2.061C737.932,17.535,737.009,16.613,737.009,15.474"/>
		<path fill="#FFFFFF" d="M719.682,15.591c0-0.861,0.698-1.556,1.557-1.556c0.861,0,1.558,0.695,1.558,1.556
			c0,0.86-0.697,1.559-1.558,1.559C720.38,17.15,719.682,16.451,719.682,15.591"/>
		<path fill="#FFFFFF" d="M742.496,15.591c0-0.861,0.697-1.556,1.557-1.556c0.858,0,1.557,0.695,1.557,1.556
			c0,0.86-0.699,1.559-1.557,1.559C743.193,17.15,742.496,16.451,742.496,15.591"/>
		<path fill="#FFFFFF" d="M756.022,25.185l0.001,33.811c0.007,0.267,0.079,5.664-5.692,5.664c-4.979,0-11.172,0.194-17.631,2.75
			c-6.457-2.556-12.65-2.75-17.63-2.75c-5.772,0-5.701-5.397-5.69-5.664V40.155c0-2.761-4.141-2.761-4.141,0v18.813
			c-0.073,5.58,3.85,9.829,9.831,9.829c3.756,0,7.978,0.125,12.37,1.254c-2.357,1.441-4.716,3.245-7.032,5.56
			c-1.953,1.954,0.975,4.881,2.928,2.929c3.083-3.083,6.238-5.177,9.366-6.621c3.126,1.444,6.28,3.538,9.364,6.621
			c1.95,1.952,4.878-0.975,2.927-2.929c-2.316-2.315-4.674-4.118-7.031-5.56c4.392-1.129,8.614-1.254,12.369-1.254
			c5.982,0,9.903-4.249,9.83-9.829V25.185C760.161,22.426,756.022,22.426,756.022,25.185"/>
	</g>
	<path fill="#FFFFFF" d="M742.143,41.588l3.665-6.827v13.593L742.143,41.588z M732.694,46.467l-2.577-4.879l2.577-4.867l2.574,4.867
		L732.694,46.467z M719.591,48.356V34.758l3.663,6.83L719.591,48.356z M712.675,21.409V61.77h6.882l7.179-13.874l3.381,6.494h5.151
		l3.39-6.494l7.15,13.874h6.915V21.409h-6.882l-7.188,13.872l-3.385-6.487l-5.151-0.002l-3.381,6.489l-7.145-13.872H712.675z"/>
	<text transform="matrix(1 0 0 1 773.3734 58.5405)"><tspan x="0" y="0" fill="#FFFFFF" font-family="'MyriadPro-Semibold'" font-size="10">ORD</tspan><tspan x="20.16" y="0" fill="#FFFFFF" font-family="'MyriadPro-Semibold'" font-size="10">E</tspan><tspan x="25.5" y="0" fill="#FFFFFF" font-family="'MyriadPro-Semibold'" font-size="10">N </tspan><tspan x="34.53" y="0" fill="#FFFFFF" font-family="'MyriadPro-Semibold'" font-size="10">D</tspan><tspan x="41.549" y="0" fill="#FFFFFF" font-family="'MyriadPro-Semibold'" font-size="10">E </tspan><tspan x="48.97" y="0" fill="#FFFFFF" font-family="'MyriadPro-Semibold'" font-size="10">L</tspan><tspan x="54.14" y="0" fill="#FFFFFF" font-family="'MyriadPro-Semibold'" font-size="10">A </tspan><tspan x="62.771" y="0" fill="#FFFFFF" font-family="'MyriadPro-Semibold'" font-size="10">C</tspan><tspan x="68.59" y="0" fill="#FFFFFF" font-family="'MyriadPro-Semibold'" font-size="10">O</tspan><tspan x="75.83" y="0" fill="#FFFFFF" font-family="'MyriadPro-Semibold'" font-size="10">M</tspan><tspan x="84.29" y="0" fill="#FFFFFF" font-family="'MyriadPro-Semibold'" font-size="10">P</tspan><tspan x="89.38" y="0" fill="#FFFFFF" font-family="'MyriadPro-Semibold'" font-size="10">AÑÍ</tspan><tspan x="105.738" y="0" fill="#FFFFFF" font-family="'MyriadPro-Semibold'" font-size="10">A </tspan><tspan x="114.369" y="0" fill="#FFFFFF" font-family="'MyriadPro-Semibold'" font-size="10">D</tspan><tspan x="121.399" y="0" fill="#FFFFFF" font-family="'MyriadPro-Semibold'" font-size="10">E </tspan><tspan x="128.819" y="0" fill="#FFFFFF" font-family="'MyriadPro-Semibold'" font-size="10">M</tspan><tspan x="137.229" y="0" fill="#FFFFFF" font-family="'MyriadPro-Semibold'" font-size="10">ARÍ</tspan><tspan x="152.518" y="0" fill="#FFFFFF" font-family="'MyriadPro-Semibold'" font-size="10">A N</tspan><tspan x="168.008" y="0" fill="#FFFFFF" font-family="'MyriadPro-Semibold'" font-size="10">.</tspan><tspan x="170.459" y="0" fill="#FFFFFF" font-family="'MyriadPro-Semibold'" font-size="10">S</tspan><tspan x="175.749" y="0" fill="#FFFFFF" font-family="'MyriadPro-Semibold'" font-size="10">.</tspan></text>
	<text transform="matrix(1 0 0 1 772.2947 44.5005)"><tspan x="0" y="0" fill="#FFFFFF" font-family="'CineplexLT-Bold'" font-size="18.8668">Co</tspan><tspan x="17.3" y="0" fill="#FFFFFF" font-family="'CineplexLT-Bold'" font-size="18.8668">l</tspan><tspan x="21.017" y="0" fill="#FFFFFF" font-family="'CineplexLT-Bold'" font-size="18.8668">e</tspan><tspan x="28.318" y="0" fill="#FFFFFF" font-family="'CineplexLT-Bold'" font-size="18.8668">gi</tspan><tspan x="40.148" y="0" fill="#FFFFFF" font-family="'CineplexLT-Bold'" font-size="18.8668">o</tspan><tspan x="47.864" y="0" fill="#FFFFFF" font-family="'CineplexLT-Bold'" font-size="18.8668" letter-spacing="1"> </tspan><tspan x="54.826" y="0" fill="#FFFFFF" font-family="'CineplexLT-Bold'" font-size="18.8668">C</tspan><tspan x="64.41" y="0" fill="#FFFFFF" font-family="'CineplexLT-Bold'" font-size="18.8668">om</tspan><tspan x="84.333" y="0" fill="#FFFFFF" font-family="'CineplexLT-Bold'" font-size="18.8668">pañ</tspan><tspan x="108.349" y="0" fill="#FFFFFF" font-family="'CineplexLT-Bold'" font-size="18.8668">í</tspan><tspan x="112.349" y="0" fill="#FFFFFF" font-family="'CineplexLT-Bold'" font-size="18.8668">a</tspan><tspan x="119.821" y="0" fill="#FFFFFF" font-family="'CineplexLT-Bold'" font-size="18.8668" letter-spacing="-1"> </tspan><tspan x="124.103" y="0" fill="#FFFFFF" font-family="'CineplexLT-Bold'" font-size="18.8668">de</tspan><tspan x="139.629" y="0" fill="#FFFFFF" font-family="'CineplexLT-Bold'" font-size="18.8668"> </tspan><tspan x="143.968" y="0" fill="#FFFFFF" font-family="'CineplexLT-Bold'" font-size="18.8668" letter-spacing="-2">M</tspan><tspan x="159.685" y="0" fill="#FFFFFF" font-family="'CineplexLT-Bold'" font-size="18.8668" letter-spacing="-1">ar</tspan><tspan x="172.382" y="0" fill="#FFFFFF" font-family="'CineplexLT-Bold'" font-size="18.8668">í</tspan><tspan x="176.419" y="0" fill="#FFFFFF" font-family="'CineplexLT-Bold'" font-size="18.8668">a</tspan><tspan x="183.928" y="0" fill="#FFFFFF" font-family="'CineplexLT-Bold'" font-size="18.8668" letter-spacing="-4">  </tspan><tspan x="185.06" y="0" fill="#FFFFFF" font-family="'CineplexLT-Bold'" font-size="18.8668" letter-spacing="-1"> </tspan><tspan x="188.456" y="0" fill="#FFFFFF" font-family="'CineplexLT-Bold'" font-size="18.8668">•</tspan><tspan x="195.455" y="0" fill="#FFFFFF" font-family="'CineplexLT-Bold'" font-size="18.8668" letter-spacing="-1"> </tspan><tspan x="199.227" y="0" fill="#FFFFFF" font-family="'CineplexLT-Bold'" font-size="18.8668">Se</tspan><tspan x="215.868" y="0" fill="#FFFFFF" font-family="'CineplexLT-Bold'" font-size="18.8668">mi</tspan><tspan x="232.093" y="0" fill="#FFFFFF" font-family="'CineplexLT-Bold'" font-size="18.8668">na</tspan><tspan x="248.017" y="0" fill="#FFFFFF" font-family="'CineplexLT-Bold'" font-size="18.8668">ri</tspan><tspan x="257.375" y="0" fill="#FFFFFF" font-family="'CineplexLT-Bold'" font-size="18.8668">o</tspan></text>
	<g>
		<path fill="#FFFFFF" d="M1708.141,15.592c0-1.574,1.278-2.851,2.854-2.851c1.575,0,2.85,1.277,2.85,2.851
			c0,1.577-1.275,2.854-2.85,2.854C1709.419,18.446,1708.141,17.169,1708.141,15.592"/>
		<path fill="#FFFFFF" d="M1702.472,15.474c0-1.136,0.921-2.058,2.058-2.058c1.136,0,2.061,0.922,2.061,2.058
			c0,1.139-0.925,2.061-2.061,2.061C1703.393,17.535,1702.472,16.613,1702.472,15.474"/>
		<path fill="#FFFFFF" d="M1715.303,15.474c0-1.136,0.923-2.058,2.061-2.058c1.134,0,2.058,0.922,2.058,2.058
			c0,1.139-0.924,2.061-2.058,2.061C1716.226,17.535,1715.303,16.613,1715.303,15.474"/>
		<path fill="#FFFFFF" d="M1697.975,15.591c0-0.861,0.698-1.556,1.557-1.556c0.861,0,1.558,0.695,1.558,1.556
			c0,0.86-0.697,1.559-1.558,1.559C1698.673,17.15,1697.975,16.451,1697.975,15.591"/>
		<path fill="#FFFFFF" d="M1720.79,15.591c0-0.861,0.697-1.556,1.557-1.556c0.858,0,1.557,0.695,1.557,1.556
			c0,0.86-0.699,1.559-1.557,1.559C1721.487,17.15,1720.79,16.451,1720.79,15.591"/>
		<path fill="#FFFFFF" d="M1734.315,25.185l0.001,33.811c0.007,0.267,0.079,5.664-5.692,5.664c-4.979,0-11.172,0.194-17.631,2.75
			c-6.457-2.556-12.65-2.75-17.63-2.75c-5.772,0-5.701-5.397-5.69-5.664V40.155c0-2.761-4.141-2.761-4.141,0v18.813
			c-0.073,5.58,3.85,9.829,9.831,9.829c3.756,0,7.978,0.125,12.37,1.254c-2.357,1.441-4.716,3.245-7.032,5.56
			c-1.953,1.954,0.975,4.881,2.928,2.929c3.083-3.083,6.238-5.177,9.366-6.621c3.126,1.444,6.28,3.538,9.364,6.621
			c1.95,1.952,4.878-0.975,2.927-2.929c-2.316-2.315-4.674-4.118-7.031-5.56c4.392-1.129,8.614-1.254,12.369-1.254
			c5.982,0,9.903-4.249,9.83-9.829V25.185C1738.454,22.426,1734.315,22.426,1734.315,25.185"/>
	</g>
	<path fill="#FFFFFF" d="M1720.437,41.588l3.665-6.827v13.593L1720.437,41.588z M1710.988,46.467l-2.577-4.879l2.577-4.867
		l2.574,4.867L1710.988,46.467z M1697.885,48.356V34.758l3.663,6.83L1697.885,48.356z M1690.969,21.409V61.77h6.882l7.179-13.874
		l3.381,6.494h5.151l3.39-6.494l7.15,13.874h6.915V21.409h-6.882l-7.188,13.872l-3.385-6.487l-5.151-0.002l-3.381,6.489
		l-7.145-13.872H1690.969z"/>
	<text transform="matrix(1 0 0 1 1751.6667 58.5405)"><tspan x="0" y="0" fill="#FFFFFF" font-family="'MyriadPro-Semibold'" font-size="10">ORD</tspan><tspan x="20.16" y="0" fill="#FFFFFF" font-family="'MyriadPro-Semibold'" font-size="10">E</tspan><tspan x="25.5" y="0" fill="#FFFFFF" font-family="'MyriadPro-Semibold'" font-size="10">N </tspan><tspan x="34.53" y="0" fill="#FFFFFF" font-family="'MyriadPro-Semibold'" font-size="10">D</tspan><tspan x="41.549" y="0" fill="#FFFFFF" font-family="'MyriadPro-Semibold'" font-size="10">E </tspan><tspan x="48.97" y="0" fill="#FFFFFF" font-family="'MyriadPro-Semibold'" font-size="10">L</tspan><tspan x="54.14" y="0" fill="#FFFFFF" font-family="'MyriadPro-Semibold'" font-size="10">A </tspan><tspan x="62.771" y="0" fill="#FFFFFF" font-family="'MyriadPro-Semibold'" font-size="10">C</tspan><tspan x="68.59" y="0" fill="#FFFFFF" font-family="'MyriadPro-Semibold'" font-size="10">O</tspan><tspan x="75.83" y="0" fill="#FFFFFF" font-family="'MyriadPro-Semibold'" font-size="10">M</tspan><tspan x="84.29" y="0" fill="#FFFFFF" font-family="'MyriadPro-Semibold'" font-size="10">P</tspan><tspan x="89.38" y="0" fill="#FFFFFF" font-family="'MyriadPro-Semibold'" font-size="10">AÑÍ</tspan><tspan x="105.738" y="0" fill="#FFFFFF" font-family="'MyriadPro-Semibold'" font-size="10">A </tspan><tspan x="114.369" y="0" fill="#FFFFFF" font-family="'MyriadPro-Semibold'" font-size="10">D</tspan><tspan x="121.399" y="0" fill="#FFFFFF" font-family="'MyriadPro-Semibold'" font-size="10">E </tspan><tspan x="128.819" y="0" fill="#FFFFFF" font-family="'MyriadPro-Semibold'" font-size="10">M</tspan><tspan x="137.229" y="0" fill="#FFFFFF" font-family="'MyriadPro-Semibold'" font-size="10">ARÍ</tspan><tspan x="152.518" y="0" fill="#FFFFFF" font-family="'MyriadPro-Semibold'" font-size="10">A N</tspan><tspan x="168.008" y="0" fill="#FFFFFF" font-family="'MyriadPro-Semibold'" font-size="10">.</tspan><tspan x="170.459" y="0" fill="#FFFFFF" font-family="'MyriadPro-Semibold'" font-size="10">S</tspan><tspan x="175.749" y="0" fill="#FFFFFF" font-family="'MyriadPro-Semibold'" font-size="10">.</tspan></text>
	<text transform="matrix(1 0 0 1 1750.5881 44.5005)"><tspan x="0" y="0" fill="#FFFFFF" font-family="'CineplexLT-Bold'" font-size="18.8668">Co</tspan><tspan x="17.3" y="0" fill="#FFFFFF" font-family="'CineplexLT-Bold'" font-size="18.8668">l</tspan><tspan x="21.017" y="0" fill="#FFFFFF" font-family="'CineplexLT-Bold'" font-size="18.8668">e</tspan><tspan x="28.318" y="0" fill="#FFFFFF" font-family="'CineplexLT-Bold'" font-size="18.8668">gi</tspan><tspan x="40.148" y="0" fill="#FFFFFF" font-family="'CineplexLT-Bold'" font-size="18.8668">o</tspan><tspan x="47.864" y="0" fill="#FFFFFF" font-family="'CineplexLT-Bold'" font-size="18.8668" letter-spacing="1"> </tspan><tspan x="54.826" y="0" fill="#FFFFFF" font-family="'CineplexLT-Bold'" font-size="18.8668">C</tspan><tspan x="64.41" y="0" fill="#FFFFFF" font-family="'CineplexLT-Bold'" font-size="18.8668">om</tspan><tspan x="84.333" y="0" fill="#FFFFFF" font-family="'CineplexLT-Bold'" font-size="18.8668">pañ</tspan><tspan x="108.349" y="0" fill="#FFFFFF" font-family="'CineplexLT-Bold'" font-size="18.8668">í</tspan><tspan x="112.349" y="0" fill="#FFFFFF" font-family="'CineplexLT-Bold'" font-size="18.8668">a</tspan><tspan x="119.821" y="0" fill="#FFFFFF" font-family="'CineplexLT-Bold'" font-size="18.8668" letter-spacing="-1"> </tspan><tspan x="124.103" y="0" fill="#FFFFFF" font-family="'CineplexLT-Bold'" font-size="18.8668">de</tspan><tspan x="139.629" y="0" fill="#FFFFFF" font-family="'CineplexLT-Bold'" font-size="18.8668"> </tspan><tspan x="143.968" y="0" fill="#FFFFFF" font-family="'CineplexLT-Bold'" font-size="18.8668" letter-spacing="-2">M</tspan><tspan x="159.685" y="0" fill="#FFFFFF" font-family="'CineplexLT-Bold'" font-size="18.8668" letter-spacing="-1">ar</tspan><tspan x="172.382" y="0" fill="#FFFFFF" font-family="'CineplexLT-Bold'" font-size="18.8668">í</tspan><tspan x="176.419" y="0" fill="#FFFFFF" font-family="'CineplexLT-Bold'" font-size="18.8668">a</tspan><tspan x="183.928" y="0" fill="#FFFFFF" font-family="'CineplexLT-Bold'" font-size="18.8668" letter-spacing="-4">  </tspan><tspan x="185.06" y="0" fill="#FFFFFF" font-family="'CineplexLT-Bold'" font-size="18.8668" letter-spacing="-1"> </tspan><tspan x="188.456" y="0" fill="#FFFFFF" font-family="'CineplexLT-Bold'" font-size="18.8668">•</tspan><tspan x="195.455" y="0" fill="#FFFFFF" font-family="'CineplexLT-Bold'" font-size="18.8668" letter-spacing="-1"> </tspan><tspan x="199.227" y="0" fill="#FFFFFF" font-family="'CineplexLT-Bold'" font-size="18.8668">Apoquindo</tspan></text>
	<g>
		<path fill="#FFFFFF" d="M2130.913,15.592c0-1.574,1.278-2.851,2.854-2.851c1.575,0,2.85,1.277,2.85,2.851
			c0,1.577-1.275,2.854-2.85,2.854C2132.191,18.446,2130.913,17.169,2130.913,15.592"/>
		<path fill="#FFFFFF" d="M2125.244,15.474c0-1.136,0.921-2.058,2.058-2.058c1.136,0,2.061,0.922,2.061,2.058
			c0,1.139-0.925,2.061-2.061,2.061C2126.166,17.535,2125.244,16.613,2125.244,15.474"/>
		<path fill="#FFFFFF" d="M2138.075,15.474c0-1.136,0.923-2.058,2.061-2.058c1.134,0,2.058,0.922,2.058,2.058
			c0,1.139-0.924,2.061-2.058,2.061C2138.998,17.535,2138.075,16.613,2138.075,15.474"/>
		<path fill="#FFFFFF" d="M2120.748,15.591c0-0.861,0.698-1.556,1.557-1.556c0.861,0,1.558,0.695,1.558,1.556
			c0,0.86-0.697,1.559-1.558,1.559C2121.446,17.15,2120.748,16.451,2120.748,15.591"/>
		<path fill="#FFFFFF" d="M2143.562,15.591c0-0.861,0.697-1.556,1.557-1.556c0.858,0,1.557,0.695,1.557,1.556
			c0,0.86-0.699,1.559-1.557,1.559C2144.259,17.15,2143.562,16.451,2143.562,15.591"/>
		<path fill="#FFFFFF" d="M2157.087,25.185l0.001,33.811c0.007,0.267,0.079,5.664-5.692,5.664c-4.979,0-11.172,0.194-17.631,2.75
			c-6.457-2.556-12.65-2.75-17.63-2.75c-5.772,0-5.701-5.397-5.69-5.664V40.155c0-2.761-4.141-2.761-4.141,0v18.813
			c-0.073,5.58,3.85,9.829,9.831,9.829c3.756,0,7.978,0.125,12.37,1.254c-2.357,1.441-4.716,3.245-7.032,5.56
			c-1.953,1.954,0.975,4.881,2.928,2.929c3.083-3.083,6.238-5.177,9.366-6.621c3.126,1.444,6.28,3.538,9.364,6.621
			c1.95,1.952,4.878-0.975,2.927-2.929c-2.316-2.315-4.674-4.118-7.031-5.56c4.392-1.129,8.614-1.254,12.369-1.254
			c5.982,0,9.903-4.249,9.83-9.829V25.185C2161.226,22.426,2157.087,22.426,2157.087,25.185"/>
	</g>
	<path fill="#FFFFFF" d="M2143.209,41.588l3.665-6.827v13.593L2143.209,41.588z M2133.76,46.467l-2.577-4.879l2.577-4.867
		l2.574,4.867L2133.76,46.467z M2120.657,48.356V34.758l3.663,6.83L2120.657,48.356z M2113.741,21.409V61.77h6.882l7.179-13.874
		l3.381,6.494h5.151l3.39-6.494l7.15,13.874h6.915V21.409h-6.882l-7.188,13.872l-3.385-6.487l-5.151-0.002l-3.381,6.489
		l-7.145-13.872H2113.741z"/>
	<text transform="matrix(1 0 0 1 2174.439 58.5405)"><tspan x="0" y="0" fill="#FFFFFF" font-family="'MyriadPro-Semibold'" font-size="10">ORD</tspan><tspan x="20.16" y="0" fill="#FFFFFF" font-family="'MyriadPro-Semibold'" font-size="10">E</tspan><tspan x="25.5" y="0" fill="#FFFFFF" font-family="'MyriadPro-Semibold'" font-size="10">N </tspan><tspan x="34.53" y="0" fill="#FFFFFF" font-family="'MyriadPro-Semibold'" font-size="10">D</tspan><tspan x="41.549" y="0" fill="#FFFFFF" font-family="'MyriadPro-Semibold'" font-size="10">E </tspan><tspan x="48.97" y="0" fill="#FFFFFF" font-family="'MyriadPro-Semibold'" font-size="10">L</tspan><tspan x="54.14" y="0" fill="#FFFFFF" font-family="'MyriadPro-Semibold'" font-size="10">A </tspan><tspan x="62.771" y="0" fill="#FFFFFF" font-family="'MyriadPro-Semibold'" font-size="10">C</tspan><tspan x="68.59" y="0" fill="#FFFFFF" font-family="'MyriadPro-Semibold'" font-size="10">O</tspan><tspan x="75.83" y="0" fill="#FFFFFF" font-family="'MyriadPro-Semibold'" font-size="10">M</tspan><tspan x="84.29" y="0" fill="#FFFFFF" font-family="'MyriadPro-Semibold'" font-size="10">P</tspan><tspan x="89.38" y="0" fill="#FFFFFF" font-family="'MyriadPro-Semibold'" font-size="10">AÑÍ</tspan><tspan x="105.738" y="0" fill="#FFFFFF" font-family="'MyriadPro-Semibold'" font-size="10">A </tspan><tspan x="114.369" y="0" fill="#FFFFFF" font-family="'MyriadPro-Semibold'" font-size="10">D</tspan><tspan x="121.399" y="0" fill="#FFFFFF" font-family="'MyriadPro-Semibold'" font-size="10">E </tspan><tspan x="128.819" y="0" fill="#FFFFFF" font-family="'MyriadPro-Semibold'" font-size="10">M</tspan><tspan x="137.229" y="0" fill="#FFFFFF" font-family="'MyriadPro-Semibold'" font-size="10">ARÍ</tspan><tspan x="152.518" y="0" fill="#FFFFFF" font-family="'MyriadPro-Semibold'" font-size="10">A N</tspan><tspan x="168.008" y="0" fill="#FFFFFF" font-family="'MyriadPro-Semibold'" font-size="10">.</tspan><tspan x="170.459" y="0" fill="#FFFFFF" font-family="'MyriadPro-Semibold'" font-size="10">S</tspan><tspan x="175.749" y="0" fill="#FFFFFF" font-family="'MyriadPro-Semibold'" font-size="10">.</tspan></text>
	<text transform="matrix(1 0 0 1 2173.3604 44.5005)"><tspan x="0" y="0" fill="#FFFFFF" font-family="'CineplexLT-Bold'" font-size="18.8668">Co</tspan><tspan x="17.3" y="0" fill="#FFFFFF" font-family="'CineplexLT-Bold'" font-size="18.8668">l</tspan><tspan x="21.017" y="0" fill="#FFFFFF" font-family="'CineplexLT-Bold'" font-size="18.8668">e</tspan><tspan x="28.318" y="0" fill="#FFFFFF" font-family="'CineplexLT-Bold'" font-size="18.8668">gi</tspan><tspan x="40.148" y="0" fill="#FFFFFF" font-family="'CineplexLT-Bold'" font-size="18.8668">o</tspan><tspan x="47.864" y="0" fill="#FFFFFF" font-family="'CineplexLT-Bold'" font-size="18.8668" letter-spacing="1"> </tspan><tspan x="54.826" y="0" fill="#FFFFFF" font-family="'CineplexLT-Bold'" font-size="18.8668">C</tspan><tspan x="64.41" y="0" fill="#FFFFFF" font-family="'CineplexLT-Bold'" font-size="18.8668">om</tspan><tspan x="84.333" y="0" fill="#FFFFFF" font-family="'CineplexLT-Bold'" font-size="18.8668">pañ</tspan><tspan x="108.349" y="0" fill="#FFFFFF" font-family="'CineplexLT-Bold'" font-size="18.8668">í</tspan><tspan x="112.349" y="0" fill="#FFFFFF" font-family="'CineplexLT-Bold'" font-size="18.8668">a</tspan><tspan x="119.821" y="0" fill="#FFFFFF" font-family="'CineplexLT-Bold'" font-size="18.8668" letter-spacing="-1"> </tspan><tspan x="124.103" y="0" fill="#FFFFFF" font-family="'CineplexLT-Bold'" font-size="18.8668">de</tspan><tspan x="139.629" y="0" fill="#FFFFFF" font-family="'CineplexLT-Bold'" font-size="18.8668"> </tspan><tspan x="143.968" y="0" fill="#FFFFFF" font-family="'CineplexLT-Bold'" font-size="18.8668" letter-spacing="-2">M</tspan><tspan x="159.685" y="0" fill="#FFFFFF" font-family="'CineplexLT-Bold'" font-size="18.8668" letter-spacing="-1">ar</tspan><tspan x="172.382" y="0" fill="#FFFFFF" font-family="'CineplexLT-Bold'" font-size="18.8668">í</tspan><tspan x="176.419" y="0" fill="#FFFFFF" font-family="'CineplexLT-Bold'" font-size="18.8668">a</tspan><tspan x="183.928" y="0" fill="#FFFFFF" font-family="'CineplexLT-Bold'" font-size="18.8668" letter-spacing="-4">  </tspan><tspan x="185.06" y="0" fill="#FFFFFF" font-family="'CineplexLT-Bold'" font-size="18.8668" letter-spacing="-1"> </tspan><tspan x="188.456" y="0" fill="#FFFFFF" font-family="'CineplexLT-Bold'" font-size="18.8668">•</tspan><tspan x="195.455" y="0" fill="#FFFFFF" font-family="'CineplexLT-Bold'" font-size="18.8668" letter-spacing="-1"> </tspan><tspan x="199.227" y="0" fill="#FFFFFF" font-family="'CineplexLT-Bold'" font-size="18.8668">Apoquindo</tspan></text>
	<g>
		<path fill="#FFFFFF" d="M1146.12,15.592c0-1.574,1.278-2.851,2.854-2.851c1.575,0,2.85,1.277,2.85,2.851
			c0,1.577-1.275,2.854-2.85,2.854C1147.399,18.446,1146.12,17.169,1146.12,15.592"/>
		<path fill="#FFFFFF" d="M1140.452,15.474c0-1.136,0.921-2.058,2.058-2.058c1.136,0,2.061,0.922,2.061,2.058
			c0,1.139-0.925,2.061-2.061,2.061C1141.373,17.535,1140.452,16.613,1140.452,15.474"/>
		<path fill="#FFFFFF" d="M1153.283,15.474c0-1.136,0.923-2.058,2.061-2.058c1.134,0,2.058,0.922,2.058,2.058
			c0,1.139-0.924,2.061-2.058,2.061C1154.206,17.535,1153.283,16.613,1153.283,15.474"/>
		<path fill="#FFFFFF" d="M1135.955,15.591c0-0.861,0.698-1.556,1.557-1.556c0.861,0,1.558,0.695,1.558,1.556
			c0,0.86-0.697,1.559-1.558,1.559C1136.653,17.15,1135.955,16.451,1135.955,15.591"/>
		<path fill="#FFFFFF" d="M1158.769,15.591c0-0.861,0.697-1.556,1.557-1.556c0.858,0,1.557,0.695,1.557,1.556
			c0,0.86-0.699,1.559-1.557,1.559C1159.466,17.15,1158.769,16.451,1158.769,15.591"/>
		<path fill="#FFFFFF" d="M1172.295,25.185l0.001,33.811c0.007,0.267,0.079,5.664-5.692,5.664c-4.979,0-11.172,0.194-17.631,2.75
			c-6.457-2.556-12.65-2.75-17.63-2.75c-5.772,0-5.701-5.397-5.69-5.664V40.155c0-2.761-4.141-2.761-4.141,0v18.813
			c-0.073,5.58,3.85,9.829,9.831,9.829c3.756,0,7.978,0.125,12.37,1.254c-2.357,1.441-4.716,3.245-7.032,5.56
			c-1.953,1.954,0.975,4.881,2.928,2.929c3.083-3.083,6.238-5.177,9.366-6.621c3.126,1.444,6.28,3.538,9.364,6.621
			c1.95,1.952,4.878-0.975,2.927-2.929c-2.316-2.315-4.674-4.118-7.031-5.56c4.392-1.129,8.614-1.254,12.369-1.254
			c5.982,0,9.903-4.249,9.83-9.829V25.185C1176.434,22.426,1172.295,22.426,1172.295,25.185"/>
	</g>
	<path fill="#FFFFFF" d="M1158.416,41.588l3.665-6.827v13.593L1158.416,41.588z M1148.967,46.467l-2.577-4.879l2.577-4.867
		l2.574,4.867L1148.967,46.467z M1135.864,48.356V34.758l3.663,6.83L1135.864,48.356z M1128.948,21.409V61.77h6.882l7.179-13.874
		l3.381,6.494h5.151l3.39-6.494l7.15,13.874h6.915V21.409h-6.882l-7.188,13.872l-3.385-6.487l-5.151-0.002l-3.381,6.489
		l-7.145-13.872H1128.948z"/>
	<text transform="matrix(1 0 0 1 1189.6465 58.5405)"><tspan x="0" y="0" fill="#FFFFFF" font-family="'MyriadPro-Semibold'" font-size="10">ORD</tspan><tspan x="20.16" y="0" fill="#FFFFFF" font-family="'MyriadPro-Semibold'" font-size="10">E</tspan><tspan x="25.5" y="0" fill="#FFFFFF" font-family="'MyriadPro-Semibold'" font-size="10">N </tspan><tspan x="34.53" y="0" fill="#FFFFFF" font-family="'MyriadPro-Semibold'" font-size="10">D</tspan><tspan x="41.549" y="0" fill="#FFFFFF" font-family="'MyriadPro-Semibold'" font-size="10">E </tspan><tspan x="48.97" y="0" fill="#FFFFFF" font-family="'MyriadPro-Semibold'" font-size="10">L</tspan><tspan x="54.14" y="0" fill="#FFFFFF" font-family="'MyriadPro-Semibold'" font-size="10">A </tspan><tspan x="62.771" y="0" fill="#FFFFFF" font-family="'MyriadPro-Semibold'" font-size="10">C</tspan><tspan x="68.59" y="0" fill="#FFFFFF" font-family="'MyriadPro-Semibold'" font-size="10">O</tspan><tspan x="75.83" y="0" fill="#FFFFFF" font-family="'MyriadPro-Semibold'" font-size="10">M</tspan><tspan x="84.29" y="0" fill="#FFFFFF" font-family="'MyriadPro-Semibold'" font-size="10">P</tspan><tspan x="89.38" y="0" fill="#FFFFFF" font-family="'MyriadPro-Semibold'" font-size="10">AÑÍ</tspan><tspan x="105.738" y="0" fill="#FFFFFF" font-family="'MyriadPro-Semibold'" font-size="10">A </tspan><tspan x="114.369" y="0" fill="#FFFFFF" font-family="'MyriadPro-Semibold'" font-size="10">D</tspan><tspan x="121.399" y="0" fill="#FFFFFF" font-family="'MyriadPro-Semibold'" font-size="10">E </tspan><tspan x="128.819" y="0" fill="#FFFFFF" font-family="'MyriadPro-Semibold'" font-size="10">M</tspan><tspan x="137.229" y="0" fill="#FFFFFF" font-family="'MyriadPro-Semibold'" font-size="10">ARÍ</tspan><tspan x="152.518" y="0" fill="#FFFFFF" font-family="'MyriadPro-Semibold'" font-size="10">A N</tspan><tspan x="168.008" y="0" fill="#FFFFFF" font-family="'MyriadPro-Semibold'" font-size="10">.</tspan><tspan x="170.459" y="0" fill="#FFFFFF" font-family="'MyriadPro-Semibold'" font-size="10">S</tspan><tspan x="175.749" y="0" fill="#FFFFFF" font-family="'MyriadPro-Semibold'" font-size="10">.</tspan></text>
	<text transform="matrix(1 0 0 1 1188.5679 44.5005)"><tspan x="0" y="0" fill="#FFFFFF" font-family="'CineplexLT-Bold'" font-size="18.8668">Co</tspan><tspan x="17.3" y="0" fill="#FFFFFF" font-family="'CineplexLT-Bold'" font-size="18.8668">l</tspan><tspan x="21.017" y="0" fill="#FFFFFF" font-family="'CineplexLT-Bold'" font-size="18.8668">e</tspan><tspan x="28.318" y="0" fill="#FFFFFF" font-family="'CineplexLT-Bold'" font-size="18.8668">gi</tspan><tspan x="40.148" y="0" fill="#FFFFFF" font-family="'CineplexLT-Bold'" font-size="18.8668">o</tspan><tspan x="47.864" y="0" fill="#FFFFFF" font-family="'CineplexLT-Bold'" font-size="18.8668" letter-spacing="1"> </tspan><tspan x="54.826" y="0" fill="#FFFFFF" font-family="'CineplexLT-Bold'" font-size="18.8668">C</tspan><tspan x="64.41" y="0" fill="#FFFFFF" font-family="'CineplexLT-Bold'" font-size="18.8668">om</tspan><tspan x="84.333" y="0" fill="#FFFFFF" font-family="'CineplexLT-Bold'" font-size="18.8668">pañ</tspan><tspan x="108.349" y="0" fill="#FFFFFF" font-family="'CineplexLT-Bold'" font-size="18.8668">í</tspan><tspan x="112.349" y="0" fill="#FFFFFF" font-family="'CineplexLT-Bold'" font-size="18.8668">a</tspan><tspan x="119.821" y="0" fill="#FFFFFF" font-family="'CineplexLT-Bold'" font-size="18.8668" letter-spacing="-1"> </tspan><tspan x="124.103" y="0" fill="#FFFFFF" font-family="'CineplexLT-Bold'" font-size="18.8668">de</tspan><tspan x="139.629" y="0" fill="#FFFFFF" font-family="'CineplexLT-Bold'" font-size="18.8668"> </tspan><tspan x="143.968" y="0" fill="#FFFFFF" font-family="'CineplexLT-Bold'" font-size="18.8668" letter-spacing="-2">M</tspan><tspan x="159.685" y="0" fill="#FFFFFF" font-family="'CineplexLT-Bold'" font-size="18.8668" letter-spacing="-1">ar</tspan><tspan x="172.382" y="0" fill="#FFFFFF" font-family="'CineplexLT-Bold'" font-size="18.8668">í</tspan><tspan x="176.419" y="0" fill="#FFFFFF" font-family="'CineplexLT-Bold'" font-size="18.8668">a</tspan><tspan x="183.928" y="0" fill="#FFFFFF" font-family="'CineplexLT-Bold'" font-size="18.8668" letter-spacing="-4">  </tspan><tspan x="185.06" y="0" fill="#FFFFFF" font-family="'CineplexLT-Bold'" font-size="18.8668" letter-spacing="-1"> </tspan><tspan x="188.456" y="0" fill="#FFFFFF" font-family="'CineplexLT-Bold'" font-size="18.8668">•</tspan><tspan x="195.455" y="0" fill="#FFFFFF" font-family="'CineplexLT-Bold'" font-size="18.8668" letter-spacing="-1"> </tspan><tspan x="199.227" y="0" fill="#FFFFFF" font-family="'CineplexLT-Bold'" font-size="18.8668">Se</tspan><tspan x="215.868" y="0" fill="#FFFFFF" font-family="'CineplexLT-Bold'" font-size="18.8668">mi</tspan><tspan x="232.093" y="0" fill="#FFFFFF" font-family="'CineplexLT-Bold'" font-size="18.8668">na</tspan><tspan x="248.017" y="0" fill="#FFFFFF" font-family="'CineplexLT-Bold'" font-size="18.8668">ri</tspan><tspan x="257.375" y="0" fill="#FFFFFF" font-family="'CineplexLT-Bold'" font-size="18.8668">o</tspan></text>
</g>
<g id="Capa_2">
	<g>
		<path fill="#FFFFFF" d="M587.719,12.152c0-1.574,1.278-2.851,2.854-2.851c1.575,0,2.85,1.277,2.85,2.851
			c0,1.577-1.275,2.854-2.85,2.854C588.997,15.006,587.719,13.729,587.719,12.152"/>
		<path fill="#FFFFFF" d="M582.05,12.033c0-1.136,0.921-2.058,2.058-2.058c1.136,0,2.061,0.922,2.061,2.058
			c0,1.139-0.925,2.061-2.061,2.061C582.971,14.094,582.05,13.172,582.05,12.033"/>
		<path fill="#FFFFFF" d="M594.881,12.033c0-1.136,0.923-2.058,2.061-2.058c1.134,0,2.058,0.922,2.058,2.058
			c0,1.139-0.924,2.061-2.058,2.061C595.804,14.094,594.881,13.172,594.881,12.033"/>
		<path fill="#FFFFFF" d="M577.553,12.151c0-0.861,0.698-1.556,1.557-1.556c0.861,0,1.558,0.695,1.558,1.556
			c0,0.86-0.697,1.559-1.558,1.559C578.251,13.71,577.553,13.011,577.553,12.151"/>
		<path fill="#FFFFFF" d="M600.367,12.151c0-0.861,0.697-1.556,1.557-1.556c0.858,0,1.557,0.695,1.557,1.556
			c0,0.86-0.699,1.559-1.557,1.559C601.064,13.71,600.367,13.011,600.367,12.151"/>
		<path fill="#FFFFFF" d="M613.893,21.745l0.001,33.811c0.007,0.267,0.079,5.664-5.692,5.664c-4.979,0-11.172,0.194-17.631,2.75
			c-6.457-2.556-12.65-2.75-17.63-2.75c-5.772,0-5.701-5.397-5.69-5.664V36.715c0-2.761-4.141-2.761-4.141,0v18.813
			c-0.073,5.58,3.85,9.829,9.831,9.829c3.756,0,7.978,0.125,12.37,1.254c-2.357,1.441-4.716,3.245-7.032,5.56
			c-1.953,1.954,0.975,4.881,2.928,2.929c3.083-3.083,6.238-5.177,9.366-6.621c3.126,1.444,6.28,3.538,9.364,6.621
			c1.95,1.952,4.878-0.975,2.927-2.929c-2.316-2.315-4.674-4.118-7.031-5.56c4.392-1.129,8.614-1.254,12.369-1.254
			c5.982,0,9.903-4.249,9.83-9.829V21.745C618.032,18.986,613.893,18.986,613.893,21.745"/>
	</g>
	<path fill="#FFFFFF" d="M600.014,38.148l3.665-6.827v13.593L600.014,38.148z M590.565,43.027l-2.577-4.879l2.577-4.867l2.574,4.867
		L590.565,43.027z M577.462,44.916V31.318l3.663,6.83L577.462,44.916z M570.546,17.969V58.33h6.882l7.179-13.874l3.381,6.494h5.151
		l3.39-6.494l7.15,13.874h6.915V17.969h-6.882l-7.188,13.872l-3.385-6.487l-5.151-0.002l-3.381,6.489l-7.145-13.872H570.546z"/>
	<g>
		<path fill="#223B7E" d="M1566.012,12.152c0-1.574,1.278-2.851,2.854-2.851c1.575,0,2.85,1.277,2.85,2.851
			c0,1.577-1.275,2.854-2.85,2.854C1567.29,15.006,1566.012,13.729,1566.012,12.152"/>
		<path fill="#223B7E" d="M1560.344,12.033c0-1.136,0.921-2.058,2.058-2.058c1.136,0,2.061,0.922,2.061,2.058
			c0,1.139-0.925,2.061-2.061,2.061C1561.264,14.094,1560.344,13.172,1560.344,12.033"/>
		<path fill="#223B7E" d="M1573.174,12.033c0-1.136,0.923-2.058,2.061-2.058c1.134,0,2.058,0.922,2.058,2.058
			c0,1.139-0.924,2.061-2.058,2.061C1574.097,14.094,1573.174,13.172,1573.174,12.033"/>
		<path fill="#223B7E" d="M1555.847,12.151c0-0.861,0.698-1.556,1.557-1.556c0.861,0,1.558,0.695,1.558,1.556
			c0,0.86-0.697,1.559-1.558,1.559C1556.545,13.71,1555.847,13.011,1555.847,12.151"/>
		<path fill="#223B7E" d="M1578.661,12.151c0-0.861,0.697-1.556,1.557-1.556c0.858,0,1.557,0.695,1.557,1.556
			c0,0.86-0.699,1.559-1.557,1.559C1579.358,13.71,1578.661,13.011,1578.661,12.151"/>
		<path fill="#223B7E" d="M1592.186,21.745l0.001,33.811c0.007,0.267,0.079,5.664-5.692,5.664c-4.979,0-11.172,0.194-17.631,2.75
			c-6.457-2.556-12.65-2.75-17.63-2.75c-5.772,0-5.701-5.397-5.69-5.664V36.715c0-2.761-4.141-2.761-4.141,0v18.813
			c-0.073,5.58,3.85,9.829,9.831,9.829c3.756,0,7.978,0.125,12.37,1.254c-2.357,1.441-4.716,3.245-7.032,5.56
			c-1.953,1.954,0.975,4.881,2.928,2.929c3.083-3.083,6.238-5.177,9.366-6.621c3.126,1.444,6.28,3.538,9.364,6.621
			c1.95,1.952,4.878-0.975,2.927-2.929c-2.316-2.315-4.674-4.118-7.031-5.56c4.392-1.129,8.614-1.254,12.369-1.254
			c5.982,0,9.903-4.249,9.83-9.829V21.745C1596.325,18.986,1592.186,18.986,1592.186,21.745"/>
	</g>
	<path fill="#223B7E" d="M1578.308,38.148l3.665-6.827v13.593L1578.308,38.148z M1568.859,43.027l-2.577-4.879l2.577-4.867
		l2.574,4.867L1568.859,43.027z M1555.756,44.916V31.318l3.663,6.83L1555.756,44.916z M1548.84,17.969V58.33h6.882l7.179-13.874
		l3.381,6.494h5.151l3.39-6.494l7.15,13.874h6.915V17.969h-6.882l-7.188,13.872l-3.385-6.487l-5.151-0.002l-3.381,6.489
		l-7.145-13.872H1548.84z"/>
</g>
</svg>
