<?xml version="1.0" encoding="utf-8"?>
<!-- Generator: Adobe Illustrator 17.0.0, SVG Export Plug-In . SVG Version: 6.00 Build 0)  -->
<!DOCTYPE svg PUBLIC "-//W3C//DTD SVG 1.1//EN" "http://www.w3.org/Graphics/SVG/1.1/DTD/svg11.dtd">
<svg version="1.1" xmlns="http://www.w3.org/2000/svg" xmlns:xlink="http://www.w3.org/1999/xlink" x="0px" y="0px"
	 width="357.927px" height="88.233px" viewBox="0 0 357.927 88.233" enable-background="new 0 0 357.927 88.233"
	 xml:space="preserve">
<g id="Capa_3">
	<rect x="690.212" y="0" fill="#223B7E" width="359.447" height="88.233"/>
	<rect x="1668.505" y="0" fill="#223B7E" width="366.936" height="88.233"/>
</g>
<g id="Capa_1">
	<g>
		<path fill="#223B7E" d="M38.116,15.592c0-1.574,1.278-2.851,2.854-2.851c1.575,0,2.85,1.277,2.85,2.851
			c0,1.577-1.275,2.854-2.85,2.854C39.394,18.446,38.116,17.169,38.116,15.592"/>
		<path fill="#223B7E" d="M32.447,15.474c0-1.136,0.921-2.058,2.058-2.058c1.136,0,2.061,0.922,2.061,2.058
			c0,1.139-0.925,2.061-2.061,2.061C33.368,17.535,32.447,16.613,32.447,15.474"/>
		<path fill="#223B7E" d="M45.278,15.474c0-1.136,0.923-2.058,2.061-2.058c1.134,0,2.058,0.922,2.058,2.058
			c0,1.139-0.924,2.061-2.058,2.061C46.201,17.535,45.278,16.613,45.278,15.474"/>
		<path fill="#223B7E" d="M27.95,15.591c0-0.861,0.698-1.556,1.557-1.556c0.861,0,1.558,0.695,1.558,1.556
			c0,0.86-0.697,1.559-1.558,1.559C28.648,17.15,27.95,16.451,27.95,15.591"/>
		<path fill="#223B7E" d="M50.765,15.591c0-0.861,0.697-1.556,1.557-1.556c0.858,0,1.557,0.695,1.557,1.556
			c0,0.86-0.699,1.559-1.557,1.559C51.462,17.15,50.765,16.451,50.765,15.591"/>
		<path fill="#223B7E" d="M64.29,25.185l0.001,33.811c0.007,0.267,0.079,5.664-5.692,5.664c-4.979,0-11.172,0.194-17.631,2.75
			c-6.457-2.556-12.65-2.75-17.63-2.75c-5.772,0-5.701-5.397-5.69-5.664V40.155c0-2.761-4.141-2.761-4.141,0v18.813
			c-0.073,5.58,3.85,9.829,9.831,9.829c3.756,0,7.978,0.125,12.37,1.254c-2.357,1.441-4.716,3.245-7.032,5.56
			c-1.953,1.954,0.975,4.881,2.928,2.929c3.083-3.083,6.238-5.177,9.366-6.621c3.126,1.444,6.28,3.538,9.364,6.621
			c1.95,1.952,4.878-0.975,2.927-2.929c-2.316-2.315-4.674-4.118-7.031-5.56c4.392-1.129,8.614-1.254,12.369-1.254
			c5.982,0,9.903-4.249,9.83-9.829V25.185C68.429,22.426,64.29,22.426,64.29,25.185"/>
	</g>
	<path fill="#223B7E" d="M50.412,41.588l3.665-6.827v13.593L50.412,41.588z M40.963,46.467l-2.577-4.879l2.577-4.867l2.574,4.867
		L40.963,46.467z M27.86,48.356V34.758l3.663,6.83L27.86,48.356z M20.944,21.409V61.77h6.882l7.179-13.874l3.381,6.494h5.151
		l3.39-6.494l7.15,13.874h6.915V21.409H54.11l-7.188,13.872l-3.385-6.487l-5.151-0.002l-3.381,6.489L27.86,21.409H20.944z"/>
	<g>
		<path fill="#223B7E" d="M88.328,55.102c0,2.259-1.37,3.549-3.229,3.549c-1.899,0-3.098-1.449-3.098-3.429
			c0-2.068,1.299-3.528,3.198-3.528C87.169,51.694,88.328,53.183,88.328,55.102z M83.301,55.203c0,1.369,0.689,2.458,1.869,2.458
			c1.189,0,1.859-1.099,1.859-2.508c0-1.27-0.63-2.469-1.859-2.469C83.95,52.684,83.301,53.813,83.301,55.203z"/>
		<path fill="#223B7E" d="M89.592,51.894c0.46-0.08,1.149-0.14,1.859-0.14c0.97,0,1.629,0.16,2.079,0.54
			c0.37,0.31,0.58,0.779,0.58,1.349c0,0.87-0.589,1.459-1.219,1.689v0.029c0.479,0.181,0.77,0.65,0.939,1.3
			c0.21,0.84,0.39,1.619,0.53,1.879h-1.27c-0.1-0.2-0.26-0.75-0.45-1.589c-0.19-0.88-0.51-1.159-1.209-1.18h-0.62v2.769h-1.219
			V51.894z M90.811,54.873h0.73c0.83,0,1.349-0.439,1.349-1.109c0-0.739-0.52-1.079-1.319-1.079c-0.39,0-0.64,0.029-0.76,0.06
			V54.873z"/>
		<path fill="#223B7E" d="M95.481,51.894c0.54-0.09,1.229-0.14,1.959-0.14c1.259,0,2.129,0.26,2.749,0.779
			c0.65,0.53,1.049,1.329,1.049,2.479c0,1.199-0.41,2.099-1.049,2.679c-0.669,0.609-1.739,0.92-3.048,0.92
			c-0.72,0-1.259-0.04-1.659-0.09V51.894z M96.711,57.601c0.17,0.03,0.43,0.03,0.68,0.03c1.599,0.01,2.548-0.87,2.548-2.579
			c0.01-1.489-0.85-2.339-2.389-2.339c-0.39,0-0.669,0.03-0.839,0.07V57.601z"/>
		<path fill="#223B7E" d="M106.28,55.553h-2.539v1.979h2.838v1.01h-4.068v-6.736h3.918v1.01h-2.688v1.738h2.539V55.553z"/>
		<path fill="#223B7E" d="M107.851,58.541v-6.736h1.399l1.739,2.889c0.45,0.749,0.84,1.529,1.149,2.259h0.02
			c-0.08-0.899-0.11-1.77-0.11-2.799v-2.349h1.14v6.736h-1.27l-1.759-2.958c-0.43-0.74-0.88-1.569-1.209-2.329l-0.03,0.01
			c0.05,0.87,0.06,1.759,0.06,2.869v2.408H107.851z"/>
		<path fill="#223B7E" d="M116.881,51.894c0.54-0.09,1.229-0.14,1.959-0.14c1.259,0,2.129,0.26,2.749,0.779
			c0.65,0.53,1.049,1.329,1.049,2.479c0,1.199-0.409,2.099-1.049,2.679c-0.669,0.609-1.739,0.92-3.048,0.92
			c-0.72,0-1.259-0.04-1.659-0.09V51.894z M118.111,57.601c0.17,0.03,0.43,0.03,0.68,0.03c1.599,0.01,2.548-0.87,2.548-2.579
			c0.01-1.489-0.849-2.339-2.389-2.339c-0.39,0-0.669,0.03-0.839,0.07V57.601z"/>
		<path fill="#223B7E" d="M127.668,55.553h-2.539v1.979h2.839v1.01h-4.067v-6.736h3.918v1.01h-2.689v1.738h2.539V55.553z"/>
		<path fill="#223B7E" d="M131.322,51.805h1.229v5.707h2.769v1.029h-3.997V51.805z"/>
		<path fill="#223B7E" d="M137.84,56.632l-0.579,1.909h-1.27l2.159-6.736h1.568l2.189,6.736h-1.319l-0.61-1.909H137.84z
			 M139.77,55.702l-0.53-1.658c-0.13-0.41-0.24-0.87-0.34-1.26h-0.02c-0.101,0.39-0.2,0.859-0.32,1.26l-0.52,1.658H139.77z"/>
		<path fill="#223B7E" d="M149.949,58.341c-0.29,0.15-0.93,0.3-1.739,0.3c-2.139,0-3.438-1.339-3.438-3.388
			c0-2.219,1.54-3.559,3.599-3.559c0.81,0,1.389,0.17,1.639,0.3l-0.27,0.979c-0.32-0.14-0.76-0.26-1.319-0.26
			c-1.369,0-2.358,0.86-2.358,2.479c0,1.479,0.869,2.429,2.349,2.429c0.499,0,1.02-0.1,1.339-0.249L149.949,58.341z"/>
		<path fill="#223B7E" d="M156.918,55.102c0,2.259-1.369,3.549-3.229,3.549c-1.898,0-3.099-1.449-3.099-3.429
			c0-2.068,1.3-3.528,3.198-3.528C155.759,51.694,156.918,53.183,156.918,55.102z M151.891,55.203c0,1.369,0.689,2.458,1.869,2.458
			c1.189,0,1.858-1.099,1.858-2.508c0-1.27-0.629-2.469-1.858-2.469C152.54,52.684,151.891,53.813,151.891,55.203z"/>
		<path fill="#223B7E" d="M163.868,55.793c-0.04-0.87-0.09-1.919-0.08-2.829h-0.03c-0.22,0.819-0.499,1.729-0.799,2.579
			l-0.979,2.918h-0.95l-0.899-2.878c-0.26-0.86-0.499-1.779-0.68-2.619h-0.02c-0.03,0.88-0.07,1.949-0.12,2.868l-0.149,2.709h-1.149
			l0.449-6.736h1.619l0.88,2.709c0.239,0.789,0.449,1.589,0.619,2.338h0.03c0.18-0.729,0.41-1.559,0.67-2.349l0.93-2.698h1.599
			l0.39,6.736h-1.199L163.868,55.793z"/>
		<path fill="#223B7E" d="M166.642,51.894c0.439-0.08,1.049-0.14,1.879-0.14c0.899,0,1.559,0.189,1.988,0.55
			c0.4,0.329,0.66,0.859,0.66,1.489c0,0.64-0.2,1.169-0.58,1.529c-0.489,0.489-1.259,0.719-2.129,0.719
			c-0.229,0-0.439-0.01-0.6-0.04v2.539h-1.219V51.894z M167.861,55.033c0.15,0.04,0.35,0.05,0.6,0.05c0.92,0,1.479-0.45,1.479-1.239
			c0-0.75-0.52-1.149-1.369-1.149c-0.34,0-0.58,0.03-0.71,0.06V55.033z"/>
		<path fill="#223B7E" d="M173.08,56.632l-0.579,1.909h-1.27l2.159-6.736h1.568l2.189,6.736h-1.319l-0.61-1.909H173.08z
			 M175.01,55.702l-0.53-1.658c-0.13-0.41-0.24-0.87-0.34-1.26h-0.02c-0.101,0.39-0.2,0.859-0.32,1.26l-0.52,1.658H175.01z"/>
		<path fill="#223B7E" d="M178.29,58.541v-6.736h1.398l1.739,2.889c0.45,0.749,0.84,1.529,1.149,2.259h0.021
			c-0.08-0.899-0.11-1.77-0.11-2.799v-2.349h1.14v6.736h-1.27l-1.759-2.958c-0.43-0.74-0.88-1.569-1.21-2.329l-0.029,0.01
			c0.05,0.87,0.06,1.759,0.06,2.869v2.408H178.29z M179.659,51.394c-0.021-0.739,0.27-1.159,0.729-1.159c0.25,0,0.43,0.09,0.619,0.2
			c0.17,0.1,0.32,0.189,0.46,0.189c0.16,0,0.24-0.09,0.271-0.409h0.589c0.011,0.77-0.25,1.119-0.739,1.119
			c-0.25,0-0.439-0.08-0.63-0.189c-0.189-0.101-0.31-0.181-0.449-0.181c-0.141,0-0.23,0.15-0.25,0.43H179.659z"/>
		<path fill="#223B7E" d="M187.458,50.245l-1.249,1.2h-0.989l0.88-1.2H187.458z M186.479,51.805v6.736h-1.229v-6.736H186.479z"/>
		<path fill="#223B7E" d="M189.439,56.632l-0.579,1.909h-1.27l2.159-6.736h1.568l2.189,6.736h-1.319l-0.61-1.909H189.439z
			 M191.368,55.702l-0.53-1.658c-0.13-0.41-0.24-0.87-0.34-1.26h-0.02c-0.101,0.39-0.2,0.859-0.32,1.26l-0.52,1.658H191.368z"/>
		<path fill="#223B7E" d="M196.721,51.894c0.539-0.09,1.229-0.14,1.959-0.14c1.259,0,2.129,0.26,2.748,0.779
			c0.649,0.53,1.05,1.329,1.05,2.479c0,1.199-0.41,2.099-1.05,2.679c-0.67,0.609-1.739,0.92-3.048,0.92
			c-0.72,0-1.26-0.04-1.659-0.09V51.894z M197.949,57.601c0.17,0.03,0.431,0.03,0.68,0.03c1.6,0.01,2.549-0.87,2.549-2.579
			c0.01-1.489-0.85-2.339-2.389-2.339c-0.39,0-0.67,0.03-0.84,0.07V57.601z"/>
		<path fill="#223B7E" d="M207.519,55.553h-2.539v1.979h2.839v1.01h-4.067v-6.736h3.918v1.01h-2.689v1.738h2.539V55.553z"/>
		<path fill="#223B7E" d="M216.858,55.793c-0.04-0.87-0.09-1.919-0.08-2.829h-0.03c-0.22,0.819-0.499,1.729-0.799,2.579
			l-0.979,2.918h-0.95l-0.899-2.878c-0.26-0.86-0.499-1.779-0.68-2.619h-0.02c-0.03,0.88-0.07,1.949-0.12,2.868l-0.149,2.709h-1.149
			l0.449-6.736h1.619l0.88,2.709c0.239,0.789,0.449,1.589,0.619,2.338h0.03c0.18-0.729,0.41-1.559,0.67-2.349l0.93-2.698h1.599
			l0.39,6.736h-1.199L216.858,55.793z"/>
		<path fill="#223B7E" d="M220.93,56.632l-0.579,1.909h-1.27l2.159-6.736h1.568l2.189,6.736h-1.319l-0.61-1.909H220.93z
			 M222.86,55.702l-0.53-1.658c-0.13-0.41-0.24-0.87-0.34-1.26h-0.02c-0.101,0.39-0.2,0.859-0.32,1.26l-0.52,1.658H222.86z"/>
		<path fill="#223B7E" d="M226.141,51.894c0.459-0.08,1.149-0.14,1.858-0.14c0.97,0,1.629,0.16,2.079,0.54
			c0.37,0.31,0.58,0.779,0.58,1.349c0,0.87-0.59,1.459-1.22,1.689v0.029c0.479,0.181,0.77,0.65,0.939,1.3
			c0.21,0.84,0.39,1.619,0.529,1.879h-1.269c-0.101-0.2-0.26-0.75-0.45-1.589c-0.189-0.88-0.51-1.159-1.209-1.18h-0.62v2.769h-1.219
			V51.894z M227.36,54.873h0.729c0.83,0,1.35-0.439,1.35-1.109c0-0.739-0.52-1.079-1.319-1.079c-0.39,0-0.64,0.029-0.76,0.06V54.873
			z"/>
		<path fill="#223B7E" d="M234.238,50.245l-1.249,1.2h-0.989l0.88-1.2H234.238z M233.258,51.805v6.736h-1.229v-6.736H233.258z"/>
		<path fill="#223B7E" d="M236.218,56.632l-0.579,1.909h-1.27l2.159-6.736h1.568l2.189,6.736h-1.319l-0.61-1.909H236.218z
			 M238.148,55.702l-0.53-1.658c-0.13-0.41-0.24-0.87-0.34-1.26h-0.02c-0.101,0.39-0.2,0.859-0.32,1.26l-0.52,1.658H238.148z"/>
		<path fill="#223B7E" d="M243.5,58.541v-6.736h1.398l1.739,2.889c0.45,0.749,0.84,1.529,1.149,2.259h0.021
			c-0.08-0.899-0.11-1.77-0.11-2.799v-2.349h1.14v6.736h-1.27l-1.759-2.958c-0.43-0.74-0.88-1.569-1.21-2.329l-0.029,0.01
			c0.05,0.87,0.06,1.759,0.06,2.869v2.408H243.5z"/>
		<path fill="#223B7E" d="M250.159,57.861c0-0.46,0.319-0.789,0.76-0.789c0.449,0,0.76,0.319,0.76,0.789c0,0.45-0.3,0.79-0.76,0.79
			C250.469,58.651,250.159,58.311,250.159,57.861z"/>
		<path fill="#223B7E" d="M252.781,57.202c0.399,0.229,0.999,0.43,1.629,0.43c0.79,0,1.229-0.37,1.229-0.92
			c0-0.51-0.34-0.81-1.199-1.119c-1.109-0.4-1.819-0.989-1.819-1.959c0-1.1,0.92-1.939,2.379-1.939c0.729,0,1.27,0.16,1.619,0.34
			l-0.3,0.99c-0.24-0.13-0.71-0.32-1.34-0.32c-0.779,0-1.119,0.42-1.119,0.81c0,0.52,0.39,0.76,1.289,1.109
			c1.17,0.439,1.739,1.029,1.739,1.999c0,1.079-0.819,2.019-2.559,2.019c-0.709,0-1.449-0.199-1.818-0.419L252.781,57.202z"/>
		<path fill="#223B7E" d="M257.901,57.861c0-0.46,0.319-0.789,0.76-0.789c0.449,0,0.76,0.319,0.76,0.789c0,0.45-0.3,0.79-0.76,0.79
			C258.21,58.651,257.901,58.311,257.901,57.861z"/>
	</g>
	<g>
		<path fill="#223B7E" d="M87.28,44.501c-1.371,0-2.554-0.459-3.547-1.377c-0.981-0.943-1.471-2.063-1.471-3.358v-3.755
			c0-1.295,0.49-2.408,1.471-3.339c0.969-0.931,2.145-1.396,3.528-1.396h1.472c0.201,0,0.374,0.066,0.519,0.198
			s0.217,0.299,0.217,0.5c0,0.188-0.073,0.355-0.217,0.5s-0.317,0.217-0.519,0.217H87.28c-0.956,0-1.78,0.32-2.472,0.962
			c-0.692,0.654-1.038,1.44-1.038,2.358v3.755c0,0.905,0.339,1.686,1.019,2.339c0.654,0.654,1.459,0.981,2.415,0.981h2
			c0.201,0,0.374,0.069,0.519,0.208c0.145,0.138,0.217,0.308,0.217,0.509c0,0.188-0.073,0.353-0.217,0.49
			c-0.145,0.139-0.317,0.208-0.519,0.208H87.28z"/>
		<path fill="#223B7E" d="M94.468,44.689c-0.855,0-1.591-0.289-2.207-0.868c-0.617-0.578-0.925-1.27-0.925-2.075v-2.773
			c0-0.805,0.308-1.496,0.925-2.075c0.616-0.578,1.352-0.868,2.207-0.868c0.88,0,1.616,0.29,2.208,0.868
			c0.616,0.566,0.924,1.258,0.924,2.075v2.773c0,0.818-0.308,1.51-0.924,2.075C96.084,44.4,95.348,44.689,94.468,44.689z
			 M96.09,38.859c0-0.427-0.158-0.779-0.474-1.056c-0.304-0.303-0.689-0.453-1.158-0.453c-0.456,0-0.842,0.15-1.158,0.453
			c-0.304,0.289-0.456,0.641-0.456,1.056v3c0,0.415,0.152,0.773,0.456,1.075c0.354,0.29,0.74,0.435,1.158,0.435
			c0.443,0,0.829-0.145,1.158-0.435c0.316-0.302,0.474-0.66,0.474-1.075V38.859z"/>
		<path fill="#223B7E" d="M100.185,44.709c-0.252,0-0.466-0.085-0.642-0.255c-0.176-0.17-0.264-0.374-0.264-0.613V31.785
			c0-0.201,0.072-0.371,0.217-0.51s0.324-0.208,0.538-0.208c0.213,0,0.393,0.069,0.538,0.208c0.145,0.139,0.217,0.309,0.217,0.51
			v11.301c0,0.051,0.05,0.145,0.151,0.283s0.151,0.296,0.151,0.472c0,0.239-0.088,0.443-0.264,0.613S100.436,44.709,100.185,44.709z
			"/>
		<path fill="#223B7E" d="M104.297,40.954v0.735c0,0.428,0.158,0.78,0.475,1.057c0.329,0.29,0.715,0.435,1.158,0.435h1.48
			c0.201,0,0.374,0.062,0.519,0.188s0.217,0.283,0.217,0.472c0,0.44-0.245,0.66-0.735,0.66h-1.497c-0.833,0-1.572-0.283-2.216-0.849
			c-0.606-0.579-0.909-1.271-0.909-2.076v-2.604c0-0.817,0.302-1.509,0.906-2.075c0.616-0.578,1.358-0.868,2.226-0.868
			c0.893,0,1.635,0.239,2.226,0.718c0.604,0.49,0.906,1.138,0.906,1.943v0.528c0,0.54-0.214,0.968-0.642,1.282
			c-0.402,0.302-0.887,0.453-1.453,0.453H104.297z M104.297,39.69h2.543c0.468,0,0.702-0.157,0.702-0.472v-0.623
			c0-0.83-0.538-1.245-1.613-1.245c-0.468,0-0.854,0.15-1.158,0.453c-0.316,0.276-0.474,0.629-0.474,1.056V39.69z"/>
		<path fill="#223B7E" d="M113.032,43.331c0.251-0.062,0.528-0.081,0.83-0.057c0.805,0.051,1.484,0.365,2.038,0.943
			c0.566,0.591,0.849,1.276,0.849,2.057c0,0.792-0.315,1.465-0.943,2.019c-0.592,0.516-1.302,0.773-2.132,0.773h-0.49
			c-0.881,0-1.629-0.22-2.245-0.66c-0.667-0.516-1-1.227-1-2.132c0-0.554,0.163-1.101,0.49-1.642l1.679-2.83
			c-1.245-0.578-1.868-1.521-1.868-2.83c0-0.88,0.302-1.597,0.906-2.15c0.553-0.516,1.276-0.773,2.169-0.773
			c0.541,0,1.006,0.139,1.396,0.415c0.289,0.214,0.44,0.32,0.453,0.32c0.025,0,0.106-0.019,0.245-0.057
			c0.101-0.05,0.195-0.075,0.283-0.075c0.264,0,0.493,0.092,0.688,0.273c0.195,0.183,0.292,0.406,0.292,0.67
			c0,0.139-0.05,0.289-0.151,0.453c-0.101,0.163-0.151,0.264-0.151,0.302v0.755c0,0.364-0.057,0.707-0.17,1.028
			c-0.113,0.32-0.29,0.612-0.528,0.877c-0.478,0.554-1.082,0.905-1.811,1.057C113.611,42.104,113.334,42.526,113.032,43.331z
			 M113.334,44.557c-0.503,0-0.95,0.163-1.34,0.49c-0.39,0.353-0.584,0.761-0.584,1.227c0,0.453,0.188,0.817,0.566,1.095
			c0.352,0.276,0.805,0.415,1.358,0.415c0.553,0,1.006-0.139,1.358-0.415c0.365-0.29,0.547-0.654,0.547-1.095
			c0-0.479-0.188-0.887-0.566-1.227C114.283,44.721,113.837,44.557,113.334,44.557z M113.306,37.389
			c-0.468,0-0.86,0.125-1.177,0.377c-0.329,0.289-0.493,0.691-0.493,1.207c0,0.528,0.165,0.956,0.493,1.283
			c0.329,0.327,0.721,0.49,1.177,0.49c0.468,0,0.866-0.163,1.195-0.49c0.316-0.314,0.474-0.742,0.474-1.283
			c0-0.516-0.164-0.918-0.493-1.207C114.191,37.514,113.799,37.389,113.306,37.389z"/>
		<path fill="#223B7E" d="M118.126,33.2c0-0.265,0.101-0.51,0.302-0.736c0.201-0.201,0.446-0.302,0.736-0.302
			c0.302,0,0.547,0.101,0.736,0.302c0.214,0.214,0.321,0.459,0.321,0.736c0,0.276-0.107,0.521-0.321,0.735
			c-0.188,0.201-0.434,0.302-0.736,0.302c-0.29,0-0.535-0.101-0.736-0.302C118.227,33.709,118.126,33.464,118.126,33.2z
			 M119.315,44.709c-0.251,0-0.465-0.085-0.642-0.255s-0.264-0.374-0.264-0.613v-7.094c0-0.201,0.072-0.371,0.217-0.51
			c0.145-0.139,0.324-0.208,0.538-0.208s0.393,0.069,0.538,0.208s0.217,0.309,0.217,0.51v6.339c0,0.051,0.05,0.145,0.151,0.283
			c0.113,0.139,0.17,0.296,0.17,0.472c0,0.239-0.092,0.443-0.274,0.613S119.566,44.709,119.315,44.709z"/>
		<path fill="#223B7E" d="M125.032,44.689c-0.855,0-1.591-0.289-2.207-0.868c-0.617-0.578-0.925-1.27-0.925-2.075v-2.773
			c0-0.805,0.308-1.496,0.925-2.075c0.616-0.578,1.352-0.868,2.207-0.868c0.881,0,1.616,0.29,2.208,0.868
			c0.615,0.566,0.924,1.258,0.924,2.075v2.773c0,0.818-0.309,1.51-0.924,2.075C126.648,44.4,125.912,44.689,125.032,44.689z
			 M126.655,38.859c0-0.427-0.158-0.779-0.475-1.056c-0.304-0.303-0.689-0.453-1.157-0.453c-0.456,0-0.842,0.15-1.158,0.453
			c-0.304,0.289-0.455,0.641-0.455,1.056v3c0,0.415,0.151,0.773,0.455,1.075c0.354,0.29,0.74,0.435,1.158,0.435
			c0.442,0,0.828-0.145,1.157-0.435c0.316-0.302,0.475-0.66,0.475-1.075V38.859z"/>
		<path fill="#223B7E" d="M142.106,44.501c-1.371,0-2.554-0.459-3.547-1.377c-0.981-0.943-1.472-2.063-1.472-3.358v-3.755
			c0-1.295,0.49-2.408,1.472-3.339c0.968-0.931,2.144-1.396,3.527-1.396h1.472c0.201,0,0.374,0.066,0.52,0.198
			c0.145,0.132,0.217,0.299,0.217,0.5c0,0.188-0.072,0.355-0.217,0.5c-0.146,0.145-0.318,0.217-0.52,0.217h-1.452
			c-0.956,0-1.78,0.32-2.472,0.962c-0.692,0.654-1.038,1.44-1.038,2.358v3.755c0,0.905,0.34,1.686,1.02,2.339
			c0.653,0.654,1.459,0.981,2.414,0.981h2c0.201,0,0.374,0.069,0.52,0.208c0.145,0.138,0.217,0.308,0.217,0.509
			c0,0.188-0.072,0.353-0.217,0.49c-0.146,0.139-0.318,0.208-0.52,0.208H142.106z"/>
		<path fill="#223B7E" d="M149.293,44.689c-0.855,0-1.591-0.289-2.207-0.868c-0.616-0.578-0.925-1.27-0.925-2.075v-2.773
			c0-0.805,0.309-1.496,0.925-2.075c0.616-0.578,1.352-0.868,2.207-0.868c0.881,0,1.616,0.29,2.208,0.868
			c0.615,0.566,0.924,1.258,0.924,2.075v2.773c0,0.818-0.309,1.51-0.924,2.075C150.909,44.4,150.174,44.689,149.293,44.689z
			 M150.916,38.859c0-0.427-0.158-0.779-0.475-1.056c-0.304-0.303-0.689-0.453-1.157-0.453c-0.456,0-0.842,0.15-1.158,0.453
			c-0.304,0.289-0.455,0.641-0.455,1.056v3c0,0.415,0.151,0.773,0.455,1.075c0.354,0.29,0.74,0.435,1.158,0.435
			c0.442,0,0.828-0.145,1.157-0.435c0.316-0.302,0.475-0.66,0.475-1.075V38.859z"/>
		<path fill="#223B7E" d="M163.661,44.709c-0.212,0-0.392-0.066-0.541-0.198c-0.149-0.133-0.224-0.299-0.224-0.5v-4.83
			c0-1.22-0.377-1.83-1.132-1.83c-1.082,0-1.622,0.604-1.622,1.812v4.849c0,0.201-0.073,0.367-0.218,0.5
			c-0.145,0.132-0.323,0.198-0.537,0.198c-0.201,0-0.378-0.066-0.528-0.198c-0.151-0.133-0.227-0.299-0.227-0.5v-4.83
			c0-1.22-0.377-1.83-1.132-1.83c-0.629,0-1.063,0.176-1.302,0.528c-0.214,0.314-0.321,0.812-0.321,1.49v4.642
			c0,0.201-0.072,0.367-0.217,0.5c-0.145,0.132-0.324,0.198-0.537,0.198c-0.215,0-0.394-0.066-0.538-0.198
			c-0.145-0.133-0.217-0.299-0.217-0.5v-5.698c0-0.037-0.045-0.132-0.132-0.283c-0.102-0.163-0.151-0.32-0.151-0.472
			c0-0.251,0.094-0.465,0.282-0.641c0.188-0.177,0.415-0.265,0.679-0.265c0.075,0,0.173,0.019,0.292,0.057s0.197,0.057,0.235,0.057
			c0.037,0,0.257-0.119,0.659-0.358c0.439-0.252,0.859-0.378,1.262-0.378c0.791,0,1.412,0.246,1.864,0.736
			c0.062,0.051,0.138,0.075,0.226,0.075c0.101,0,0.314-0.113,0.641-0.34c0.451-0.313,0.96-0.472,1.525-0.472
			c0.866,0,1.538,0.303,2.015,0.906c0.427,0.528,0.641,1.207,0.641,2.037v5.038c0,0.201-0.075,0.367-0.224,0.5
			C164.033,44.642,163.86,44.709,163.661,44.709z"/>
		<path fill="#223B7E" d="M168.104,48.331c0,0.201-0.071,0.371-0.214,0.51c-0.144,0.138-0.32,0.207-0.531,0.207
			s-0.392-0.069-0.54-0.207c-0.149-0.139-0.224-0.309-0.224-0.51v-9.98c0-0.075-0.045-0.176-0.132-0.302
			c-0.102-0.164-0.151-0.314-0.151-0.453c0-0.251,0.095-0.465,0.283-0.642c0.201-0.188,0.427-0.283,0.679-0.283
			c0.088,0,0.188,0.02,0.302,0.057c0.113,0.038,0.189,0.057,0.227,0.057c0.025,0,0.252-0.125,0.68-0.377
			c0.439-0.252,0.854-0.378,1.245-0.378c0.855,0,1.591,0.296,2.207,0.888c0.616,0.578,0.925,1.282,0.925,2.112v2.68
			c0,0.843-0.31,1.554-0.928,2.132c-0.619,0.578-1.364,0.868-2.235,0.868c-0.606,0-1.137-0.189-1.592-0.566V48.331z M171.349,38.935
			c0-0.428-0.164-0.793-0.493-1.095c-0.304-0.302-0.684-0.452-1.139-0.452c-0.468,0-0.848,0.145-1.139,0.434
			c-0.316,0.314-0.475,0.686-0.475,1.113v2.867c0,0.428,0.158,0.799,0.475,1.113c0.291,0.29,0.671,0.435,1.139,0.435
			c0.469,0,0.854-0.145,1.158-0.435c0.315-0.34,0.474-0.71,0.474-1.113V38.935z"/>
		<path fill="#223B7E" d="M178.914,38.859c0-0.339-0.126-0.635-0.377-0.887c-0.252-0.238-0.566-0.358-0.943-0.358h-1.66
			c-0.215,0-0.391-0.069-0.528-0.21c-0.139-0.141-0.208-0.306-0.208-0.497c0-0.204,0.069-0.373,0.208-0.507
			c0.138-0.134,0.313-0.201,0.528-0.201h1.66c0.779,0,1.443,0.265,1.991,0.795c0.56,0.517,0.839,1.146,0.839,1.891v3.971
			c0,0.051,0.044,0.145,0.132,0.283c0.101,0.14,0.15,0.297,0.15,0.474c0,0.252-0.097,0.463-0.29,0.633s-0.414,0.255-0.662,0.255
			c-0.349,0-0.609-0.126-0.783-0.378c-0.479,0.403-1.035,0.605-1.667,0.605c-0.858,0-1.598-0.276-2.216-0.83
			c-0.619-0.541-0.928-1.22-0.928-2.038c0-0.817,0.309-1.496,0.928-2.037c0.618-0.554,1.357-0.83,2.216-0.83
			c0.594,0,1.131,0.188,1.61,0.565V38.859z M177.358,40.256c-0.544,0-0.961,0.154-1.252,0.462c-0.291,0.309-0.437,0.727-0.437,1.255
			c0,0.415,0.164,0.768,0.493,1.057c0.304,0.29,0.702,0.434,1.195,0.434s0.892-0.144,1.195-0.434
			c0.316-0.276,0.475-0.629,0.475-1.057c0-0.528-0.146-0.946-0.437-1.255C178.3,40.41,177.889,40.256,177.358,40.256z"/>
		<path fill="#223B7E" d="M187.715,44.709c-0.211,0-0.392-0.066-0.54-0.198c-0.149-0.133-0.224-0.299-0.224-0.5v-4.83
			c0-1.22-0.541-1.83-1.623-1.83s-1.622,0.673-1.622,2.019v4.642c0,0.214-0.075,0.384-0.224,0.509
			c-0.149,0.126-0.33,0.189-0.541,0.189c-0.198,0-0.372-0.063-0.521-0.189c-0.149-0.125-0.224-0.295-0.224-0.509v-5.698
			c0-0.062-0.044-0.163-0.132-0.302c-0.101-0.163-0.151-0.314-0.151-0.453c0-0.251,0.095-0.465,0.283-0.641
			c0.214-0.177,0.446-0.265,0.698-0.265c0.075,0,0.17,0.019,0.283,0.057c0.125,0.038,0.201,0.057,0.227,0.057
			c0.037,0,0.27-0.119,0.697-0.358c0.44-0.252,0.85-0.378,1.227-0.378c1.019,0,1.799,0.29,2.34,0.868
			c0.528,0.528,0.792,1.221,0.792,2.075v5.038c0,0.201-0.071,0.367-0.214,0.5C188.103,44.642,187.926,44.709,187.715,44.709z
			 M186.857,33.426c0.176,0,0.327,0.061,0.453,0.18c0.125,0.119,0.188,0.268,0.188,0.443c0,0.428-0.208,0.642-0.623,0.642h-3.471
			c-0.177,0-0.324-0.062-0.443-0.188c-0.12-0.126-0.18-0.277-0.18-0.453s0.06-0.327,0.18-0.453c0.119-0.125,0.267-0.188,0.443-0.188
			L186.857,33.426z"/>
		<path fill="#223B7E" d="M190.875,44.454c-0.176-0.17-0.264-0.374-0.264-0.613v-7.094c0-0.201,0.072-0.371,0.217-0.51
			s0.323-0.208,0.538-0.208c0.213,0,0.393,0.069,0.537,0.208s0.217,0.309,0.217,0.51v6.339c0,0.051,0.051,0.145,0.151,0.283
			c0.113,0.139,0.17,0.296,0.17,0.472c0,0.239-0.092,0.443-0.273,0.613c-0.183,0.17-0.399,0.255-0.651,0.255
			S191.051,44.624,190.875,44.454z M191.535,35.011l1.793-1.565c0.125-0.113,0.188-0.271,0.188-0.472
			c0-0.176-0.063-0.327-0.188-0.453c-0.126-0.126-0.277-0.188-0.453-0.188c-0.188,0-0.34,0.062-0.453,0.188l-1.622,1.698
			c-0.113,0.113-0.17,0.245-0.17,0.396c0,0.352,0.183,0.527,0.547,0.527C191.328,35.142,191.448,35.099,191.535,35.011z"/>
		<path fill="#223B7E" d="M198.705,38.859c0-0.339-0.126-0.635-0.377-0.887c-0.252-0.238-0.566-0.358-0.943-0.358h-1.66
			c-0.215,0-0.391-0.069-0.528-0.21c-0.139-0.141-0.208-0.306-0.208-0.497c0-0.204,0.069-0.373,0.208-0.507
			c0.138-0.134,0.313-0.201,0.528-0.201h1.66c0.779,0,1.443,0.265,1.991,0.795c0.56,0.517,0.839,1.146,0.839,1.891v3.971
			c0,0.051,0.044,0.145,0.132,0.283c0.101,0.14,0.15,0.297,0.15,0.474c0,0.252-0.097,0.463-0.29,0.633s-0.414,0.255-0.662,0.255
			c-0.349,0-0.609-0.126-0.783-0.378c-0.479,0.403-1.035,0.605-1.667,0.605c-0.858,0-1.598-0.276-2.216-0.83
			c-0.619-0.541-0.928-1.22-0.928-2.038c0-0.817,0.309-1.496,0.928-2.037c0.618-0.554,1.357-0.83,2.216-0.83
			c0.594,0,1.131,0.188,1.61,0.565V38.859z M197.149,40.256c-0.544,0-0.961,0.154-1.252,0.462c-0.291,0.309-0.437,0.727-0.437,1.255
			c0,0.415,0.164,0.768,0.493,1.057c0.304,0.29,0.702,0.434,1.195,0.434s0.892-0.144,1.195-0.434
			c0.316-0.276,0.475-0.629,0.475-1.057c0-0.528-0.146-0.946-0.437-1.255C198.091,40.41,197.68,40.256,197.149,40.256z"/>
		<path fill="#223B7E" d="M210.591,31.765c0-0.201,0.073-0.37,0.22-0.509s0.328-0.208,0.545-0.208c0.216,0,0.395,0.069,0.535,0.208
			c0.14,0.139,0.21,0.308,0.21,0.509v11.019c0,0.063,0.05,0.163,0.15,0.302c0.101,0.177,0.151,0.34,0.151,0.49
			c0,0.252-0.092,0.469-0.275,0.651s-0.415,0.273-0.695,0.273c-0.331,0-0.599-0.132-0.803-0.396
			c-0.438,0.391-0.99,0.585-1.653,0.585c-0.84,0-1.573-0.295-2.199-0.887c-0.614-0.591-0.921-1.295-0.921-2.113v-2.66
			c0-0.817,0.307-1.521,0.921-2.112c0.626-0.592,1.365-0.888,2.218-0.888c0.613,0,1.146,0.189,1.597,0.566V31.765z M207.365,41.784
			c0,0.428,0.15,0.799,0.452,1.113c0.327,0.289,0.711,0.434,1.151,0.434c0.465,0,0.849-0.145,1.15-0.434
			c0.314-0.302,0.472-0.66,0.472-1.075v-2.906c0-0.427-0.157-0.792-0.472-1.094c-0.327-0.302-0.71-0.453-1.15-0.453
			c-0.453,0-0.837,0.151-1.151,0.453c-0.302,0.302-0.452,0.667-0.452,1.094V41.784z"/>
		<path fill="#223B7E" d="M215.61,40.954v0.735c0,0.428,0.158,0.78,0.475,1.057c0.329,0.29,0.715,0.435,1.158,0.435h1.48
			c0.201,0,0.374,0.062,0.519,0.188s0.217,0.283,0.217,0.472c0,0.44-0.245,0.66-0.735,0.66h-1.497c-0.834,0-1.572-0.283-2.216-0.849
			c-0.606-0.579-0.91-1.271-0.91-2.076v-2.604c0-0.817,0.303-1.509,0.906-2.075c0.616-0.578,1.358-0.868,2.227-0.868
			c0.893,0,1.635,0.239,2.226,0.718c0.604,0.49,0.906,1.138,0.906,1.943v0.528c0,0.54-0.215,0.968-0.642,1.282
			c-0.403,0.302-0.887,0.453-1.453,0.453H215.61z M215.61,39.69h2.543c0.468,0,0.702-0.157,0.702-0.472v-0.623
			c0-0.83-0.538-1.245-1.613-1.245c-0.468,0-0.854,0.15-1.157,0.453c-0.316,0.276-0.475,0.629-0.475,1.056V39.69z"/>
		<path fill="#223B7E" d="M233.42,42.614l3.207-10.414c0.251-0.768,0.729-1.151,1.434-1.151c0.34,0,0.629,0.101,0.868,0.302
			c0.264,0.227,0.408,0.522,0.434,0.887l0.68,11.717c0.024,0.214-0.041,0.393-0.198,0.537s-0.343,0.218-0.557,0.218
			c-0.201,0-0.374-0.066-0.519-0.198c-0.146-0.133-0.218-0.286-0.218-0.463l-0.641-10.829l-3.17,10.244
			c-0.164,0.579-0.604,0.868-1.32,0.868c-0.692,0-1.133-0.289-1.321-0.868l-3.17-10.226l-0.622,10.811
			c-0.013,0.177-0.092,0.33-0.236,0.463c-0.145,0.132-0.317,0.198-0.519,0.198c-0.214,0-0.396-0.073-0.547-0.218
			c-0.151-0.145-0.221-0.323-0.208-0.537l0.68-11.697c0.025-0.365,0.17-0.661,0.434-0.887c0.239-0.201,0.528-0.303,0.868-0.303
			c0.729,0,1.207,0.384,1.434,1.151L233.42,42.614z"/>
		<path fill="#223B7E" d="M246.041,38.859c0-0.339-0.126-0.635-0.377-0.887c-0.252-0.238-0.566-0.358-0.943-0.358h-1.66
			c-0.215,0-0.391-0.069-0.528-0.21c-0.139-0.141-0.208-0.306-0.208-0.497c0-0.204,0.069-0.373,0.208-0.507
			c0.138-0.134,0.313-0.201,0.528-0.201h1.66c0.779,0,1.443,0.265,1.991,0.795c0.56,0.517,0.839,1.146,0.839,1.891v3.971
			c0,0.051,0.044,0.145,0.132,0.283c0.101,0.14,0.15,0.297,0.15,0.474c0,0.252-0.097,0.463-0.29,0.633s-0.414,0.255-0.662,0.255
			c-0.349,0-0.609-0.126-0.783-0.378c-0.479,0.403-1.035,0.605-1.667,0.605c-0.858,0-1.598-0.276-2.216-0.83
			c-0.619-0.541-0.928-1.22-0.928-2.038c0-0.817,0.309-1.496,0.928-2.037c0.618-0.554,1.357-0.83,2.216-0.83
			c0.594,0,1.131,0.188,1.61,0.565V38.859z M244.485,40.256c-0.544,0-0.961,0.154-1.252,0.462c-0.291,0.309-0.437,0.727-0.437,1.255
			c0,0.415,0.164,0.768,0.493,1.057c0.304,0.29,0.702,0.434,1.195,0.434s0.892-0.144,1.195-0.434
			c0.316-0.276,0.475-0.629,0.475-1.057c0-0.528-0.146-0.946-0.437-1.255C245.427,40.41,245.016,40.256,244.485,40.256z"/>
		<path fill="#223B7E" d="M251.947,37.444c-0.391,0-0.711,0.126-0.962,0.377c-0.265,0.251-0.396,0.546-0.396,0.885v5.287
			c0,0.201-0.075,0.37-0.224,0.509c-0.149,0.138-0.329,0.207-0.541,0.207c-0.211,0-0.388-0.069-0.53-0.208
			c-0.144-0.139-0.215-0.308-0.215-0.51V38.69c0-0.729,0.273-1.358,0.82-1.887c0.548-0.516,1.218-0.774,2.01-0.774h1.208
			c0.201,0,0.374,0.07,0.519,0.211s0.217,0.306,0.217,0.497s-0.072,0.357-0.217,0.497c-0.145,0.141-0.317,0.21-0.519,0.21H251.947z"
			/>
		<path fill="#223B7E" d="M254.907,44.454c-0.176-0.17-0.264-0.374-0.264-0.613v-7.094c0-0.201,0.072-0.371,0.217-0.51
			s0.323-0.208,0.538-0.208c0.213,0,0.393,0.069,0.537,0.208c0.145,0.139,0.217,0.309,0.217,0.51v6.339
			c0,0.051,0.051,0.145,0.151,0.283c0.113,0.139,0.17,0.296,0.17,0.472c0,0.239-0.092,0.443-0.273,0.613
			c-0.183,0.17-0.399,0.255-0.651,0.255S255.083,44.624,254.907,44.454z M255.568,35.011l1.793-1.565
			c0.125-0.113,0.188-0.271,0.188-0.472c0-0.176-0.063-0.327-0.188-0.453c-0.126-0.126-0.277-0.188-0.453-0.188
			c-0.188,0-0.34,0.062-0.453,0.188l-1.622,1.698c-0.113,0.113-0.17,0.245-0.17,0.396c0,0.352,0.183,0.527,0.547,0.527
			C255.361,35.142,255.48,35.099,255.568,35.011z"/>
		<path fill="#223B7E" d="M262.776,38.859c0-0.339-0.126-0.635-0.377-0.887c-0.252-0.238-0.566-0.358-0.943-0.358h-1.66
			c-0.215,0-0.391-0.069-0.528-0.21c-0.139-0.141-0.208-0.306-0.208-0.497c0-0.204,0.069-0.373,0.208-0.507
			c0.138-0.134,0.313-0.201,0.528-0.201h1.66c0.779,0,1.443,0.265,1.991,0.795c0.56,0.517,0.839,1.146,0.839,1.891v3.971
			c0,0.051,0.044,0.145,0.132,0.283c0.101,0.14,0.15,0.297,0.15,0.474c0,0.252-0.097,0.463-0.29,0.633s-0.414,0.255-0.662,0.255
			c-0.349,0-0.609-0.126-0.783-0.378c-0.479,0.403-1.035,0.605-1.667,0.605c-0.858,0-1.598-0.276-2.216-0.83
			c-0.619-0.541-0.928-1.22-0.928-2.038c0-0.817,0.309-1.496,0.928-2.037c0.618-0.554,1.357-0.83,2.216-0.83
			c0.594,0,1.131,0.188,1.61,0.565V38.859z M261.219,40.256c-0.544,0-0.961,0.154-1.252,0.462c-0.291,0.309-0.437,0.727-0.437,1.255
			c0,0.415,0.164,0.768,0.493,1.057c0.304,0.29,0.702,0.434,1.195,0.434s0.892-0.144,1.195-0.434
			c0.316-0.276,0.475-0.629,0.475-1.057c0-0.528-0.146-0.946-0.437-1.255C262.161,40.41,261.75,40.256,261.219,40.256z"/>
		<path fill="#223B7E" d="M270.945,39.859c0-0.565,0.194-1.044,0.585-1.434c0.402-0.402,0.887-0.604,1.452-0.604
			c0.554,0,1.031,0.201,1.434,0.604s0.604,0.881,0.604,1.434c0,0.566-0.202,1.051-0.604,1.453c-0.39,0.39-0.867,0.585-1.434,0.585
			c-0.578,0-1.062-0.195-1.452-0.585C271.139,40.923,270.945,40.438,270.945,39.859z"/>
		<path fill="#223B7E" d="M282.453,44.614c-0.503,0-0.755-0.239-0.755-0.717c0-0.491,0.252-0.736,0.755-0.736h2.264
			c0.855,0,1.535-0.232,2.038-0.696c0.49-0.452,0.735-1.03,0.735-1.733c0-0.979-0.578-1.695-1.735-2.147
			c-0.541-0.188-1.075-0.377-1.604-0.564c-0.528-0.188-1.063-0.377-1.604-0.565c-1.157-0.565-1.736-1.47-1.736-2.713
			c0-1.004,0.384-1.833,1.151-2.486c0.729-0.641,1.629-0.961,2.697-0.961h1.812c0.503,0,0.755,0.236,0.755,0.708
			s-0.252,0.707-0.755,0.707h-1.812c-0.653,0-1.207,0.195-1.66,0.585c-0.428,0.391-0.642,0.868-0.642,1.434
			c0,0.517,0.201,0.925,0.604,1.227c0.138,0.113,0.317,0.221,0.537,0.321s0.481,0.201,0.783,0.302
			c0.742,0.239,1.349,0.44,1.82,0.604c0.472,0.164,0.809,0.283,1.01,0.358c0.415,0.177,0.812,0.49,1.188,0.943
			c0.49,0.566,0.736,1.314,0.736,2.245c0,1.145-0.409,2.075-1.227,2.792c-0.818,0.73-1.849,1.095-3.095,1.095H282.453z"/>
		<path fill="#223B7E" d="M291.849,40.954v0.735c0,0.428,0.158,0.78,0.475,1.057c0.329,0.29,0.715,0.435,1.158,0.435h1.48
			c0.201,0,0.374,0.062,0.519,0.188s0.217,0.283,0.217,0.472c0,0.44-0.245,0.66-0.735,0.66h-1.497c-0.834,0-1.572-0.283-2.216-0.849
			c-0.606-0.579-0.91-1.271-0.91-2.076v-2.604c0-0.817,0.303-1.509,0.906-2.075c0.616-0.578,1.358-0.868,2.227-0.868
			c0.893,0,1.635,0.239,2.226,0.718c0.604,0.49,0.906,1.138,0.906,1.943v0.528c0,0.54-0.215,0.968-0.642,1.282
			c-0.403,0.302-0.887,0.453-1.453,0.453H291.849z M291.849,39.69h2.543c0.468,0,0.702-0.157,0.702-0.472v-0.623
			c0-0.83-0.538-1.245-1.613-1.245c-0.468,0-0.854,0.15-1.157,0.453c-0.316,0.276-0.475,0.629-0.475,1.056V39.69z"/>
		<path fill="#223B7E" d="M307.423,44.709c-0.212,0-0.392-0.066-0.541-0.198c-0.149-0.133-0.224-0.299-0.224-0.5v-4.83
			c0-1.22-0.377-1.83-1.132-1.83c-1.082,0-1.622,0.604-1.622,1.812v4.849c0,0.201-0.073,0.367-0.218,0.5
			c-0.145,0.132-0.323,0.198-0.537,0.198c-0.201,0-0.378-0.066-0.528-0.198c-0.151-0.133-0.227-0.299-0.227-0.5v-4.83
			c0-1.22-0.377-1.83-1.132-1.83c-0.629,0-1.063,0.176-1.302,0.528c-0.214,0.314-0.321,0.812-0.321,1.49v4.642
			c0,0.201-0.072,0.367-0.217,0.5c-0.145,0.132-0.324,0.198-0.537,0.198c-0.215,0-0.394-0.066-0.538-0.198
			c-0.145-0.133-0.217-0.299-0.217-0.5v-5.698c0-0.037-0.045-0.132-0.132-0.283c-0.102-0.163-0.151-0.32-0.151-0.472
			c0-0.251,0.094-0.465,0.282-0.641c0.188-0.177,0.415-0.265,0.679-0.265c0.075,0,0.173,0.019,0.292,0.057s0.197,0.057,0.235,0.057
			c0.037,0,0.257-0.119,0.659-0.358c0.439-0.252,0.859-0.378,1.262-0.378c0.791,0,1.412,0.246,1.864,0.736
			c0.062,0.051,0.138,0.075,0.226,0.075c0.101,0,0.314-0.113,0.641-0.34c0.451-0.313,0.96-0.472,1.525-0.472
			c0.866,0,1.538,0.303,2.015,0.906c0.427,0.528,0.641,1.207,0.641,2.037v5.038c0,0.201-0.075,0.367-0.224,0.5
			C307.795,44.642,307.621,44.709,307.423,44.709z"/>
		<path fill="#223B7E" d="M310.074,33.2c0-0.265,0.101-0.51,0.302-0.736c0.201-0.201,0.446-0.302,0.736-0.302
			c0.302,0,0.547,0.101,0.735,0.302c0.214,0.214,0.32,0.459,0.32,0.736c0,0.276-0.106,0.521-0.32,0.735
			c-0.188,0.201-0.434,0.302-0.735,0.302c-0.29,0-0.535-0.101-0.736-0.302C310.174,33.709,310.074,33.464,310.074,33.2z
			 M311.262,44.709c-0.252,0-0.466-0.085-0.642-0.255s-0.264-0.374-0.264-0.613v-7.094c0-0.201,0.072-0.371,0.217-0.51
			s0.323-0.208,0.538-0.208c0.213,0,0.393,0.069,0.537,0.208s0.217,0.309,0.217,0.51v6.339c0,0.051,0.051,0.145,0.151,0.283
			c0.113,0.139,0.17,0.296,0.17,0.472c0,0.239-0.092,0.443-0.273,0.613C311.731,44.624,311.514,44.709,311.262,44.709z"/>
		<path fill="#223B7E" d="M319.875,44.709c-0.212,0-0.392-0.066-0.541-0.198c-0.149-0.133-0.224-0.299-0.224-0.5v-4.83
			c0-1.22-0.537-1.83-1.613-1.83c-1.088,0-1.632,0.673-1.632,2.019v4.642c0,0.214-0.072,0.384-0.217,0.509
			c-0.145,0.126-0.324,0.189-0.537,0.189c-0.215,0-0.394-0.063-0.538-0.189c-0.145-0.125-0.217-0.295-0.217-0.509v-5.698
			c0-0.062-0.045-0.163-0.132-0.302c-0.102-0.163-0.151-0.314-0.151-0.453c0-0.251,0.095-0.465,0.283-0.641
			c0.214-0.177,0.439-0.265,0.679-0.265c0.088,0,0.188,0.019,0.302,0.057s0.189,0.057,0.227,0.057c0.038,0,0.271-0.119,0.698-0.358
			c0.44-0.252,0.849-0.378,1.227-0.378c1.019,0,1.799,0.29,2.339,0.868c0.528,0.528,0.793,1.221,0.793,2.075v5.038
			c0,0.201-0.071,0.367-0.215,0.5C320.263,44.642,320.086,44.709,319.875,44.709z"/>
		<path fill="#223B7E" d="M326.903,38.859c0-0.339-0.126-0.635-0.377-0.887c-0.252-0.238-0.566-0.358-0.943-0.358h-1.66
			c-0.215,0-0.391-0.069-0.528-0.21c-0.139-0.141-0.208-0.306-0.208-0.497c0-0.204,0.069-0.373,0.208-0.507
			c0.138-0.134,0.313-0.201,0.528-0.201h1.66c0.779,0,1.443,0.265,1.991,0.795c0.56,0.517,0.839,1.146,0.839,1.891v3.971
			c0,0.051,0.044,0.145,0.132,0.283c0.101,0.14,0.15,0.297,0.15,0.474c0,0.252-0.097,0.463-0.29,0.633s-0.414,0.255-0.662,0.255
			c-0.349,0-0.609-0.126-0.783-0.378c-0.479,0.403-1.035,0.605-1.667,0.605c-0.858,0-1.598-0.276-2.216-0.83
			c-0.619-0.541-0.928-1.22-0.928-2.038c0-0.817,0.309-1.496,0.928-2.037c0.618-0.554,1.357-0.83,2.216-0.83
			c0.594,0,1.131,0.188,1.61,0.565V38.859z M325.346,40.256c-0.544,0-0.961,0.154-1.252,0.462c-0.291,0.309-0.437,0.727-0.437,1.255
			c0,0.415,0.164,0.768,0.493,1.057c0.304,0.29,0.702,0.434,1.195,0.434s0.892-0.144,1.195-0.434
			c0.316-0.276,0.475-0.629,0.475-1.057c0-0.528-0.146-0.946-0.437-1.255C326.288,40.41,325.877,40.256,325.346,40.256z"/>
		<path fill="#223B7E" d="M332.883,37.444c-0.391,0-0.711,0.126-0.962,0.377c-0.265,0.251-0.396,0.546-0.396,0.885v5.287
			c0,0.201-0.075,0.37-0.224,0.509c-0.149,0.138-0.329,0.207-0.541,0.207c-0.211,0-0.388-0.069-0.53-0.208
			c-0.144-0.139-0.215-0.308-0.215-0.51V38.69c0-0.729,0.273-1.358,0.82-1.887c0.548-0.516,1.218-0.774,2.01-0.774h1.208
			c0.201,0,0.374,0.07,0.519,0.211s0.217,0.306,0.217,0.497s-0.072,0.357-0.217,0.497c-0.145,0.141-0.317,0.21-0.519,0.21H332.883z"
			/>
		<path fill="#223B7E" d="M335.355,33.2c0-0.265,0.101-0.51,0.302-0.736c0.201-0.201,0.446-0.302,0.736-0.302
			c0.302,0,0.547,0.101,0.735,0.302c0.214,0.214,0.32,0.459,0.32,0.736c0,0.276-0.106,0.521-0.32,0.735
			c-0.188,0.201-0.434,0.302-0.735,0.302c-0.29,0-0.535-0.101-0.736-0.302C335.455,33.709,335.355,33.464,335.355,33.2z
			 M336.543,44.709c-0.252,0-0.466-0.085-0.642-0.255s-0.264-0.374-0.264-0.613v-7.094c0-0.201,0.072-0.371,0.217-0.51
			s0.323-0.208,0.538-0.208c0.213,0,0.393,0.069,0.537,0.208s0.217,0.309,0.217,0.51v6.339c0,0.051,0.051,0.145,0.151,0.283
			c0.113,0.139,0.17,0.296,0.17,0.472c0,0.239-0.092,0.443-0.273,0.613C337.012,44.624,336.795,44.709,336.543,44.709z"/>
		<path fill="#223B7E" d="M342.26,44.689c-0.855,0-1.591-0.289-2.207-0.868c-0.616-0.578-0.925-1.27-0.925-2.075v-2.773
			c0-0.805,0.309-1.496,0.925-2.075c0.616-0.578,1.352-0.868,2.207-0.868c0.881,0,1.616,0.29,2.208,0.868
			c0.615,0.566,0.924,1.258,0.924,2.075v2.773c0,0.818-0.309,1.51-0.924,2.075C343.876,44.4,343.141,44.689,342.26,44.689z
			 M343.883,38.859c0-0.427-0.158-0.779-0.475-1.056c-0.304-0.303-0.689-0.453-1.157-0.453c-0.456,0-0.842,0.15-1.158,0.453
			c-0.304,0.289-0.455,0.641-0.455,1.056v3c0,0.415,0.151,0.773,0.455,1.075c0.354,0.29,0.74,0.435,1.158,0.435
			c0.442,0,0.828-0.145,1.157-0.435c0.316-0.302,0.475-0.66,0.475-1.075V38.859z"/>
	</g>
	<g>
		<path fill="#FFFFFF" d="M729.847,15.592c0-1.574,1.278-2.851,2.854-2.851c1.575,0,2.85,1.277,2.85,2.851
			c0,1.577-1.275,2.854-2.85,2.854C731.125,18.446,729.847,17.169,729.847,15.592"/>
		<path fill="#FFFFFF" d="M724.179,15.474c0-1.136,0.921-2.058,2.058-2.058c1.136,0,2.061,0.922,2.061,2.058
			c0,1.139-0.925,2.061-2.061,2.061C725.1,17.535,724.179,16.613,724.179,15.474"/>
		<path fill="#FFFFFF" d="M737.009,15.474c0-1.136,0.923-2.058,2.061-2.058c1.134,0,2.058,0.922,2.058,2.058
			c0,1.139-0.924,2.061-2.058,2.061C737.932,17.535,737.009,16.613,737.009,15.474"/>
		<path fill="#FFFFFF" d="M719.682,15.591c0-0.861,0.698-1.556,1.557-1.556c0.861,0,1.558,0.695,1.558,1.556
			c0,0.86-0.697,1.559-1.558,1.559C720.38,17.15,719.682,16.451,719.682,15.591"/>
		<path fill="#FFFFFF" d="M742.496,15.591c0-0.861,0.697-1.556,1.557-1.556c0.858,0,1.557,0.695,1.557,1.556
			c0,0.86-0.699,1.559-1.557,1.559C743.193,17.15,742.496,16.451,742.496,15.591"/>
		<path fill="#FFFFFF" d="M756.022,25.185l0.001,33.811c0.007,0.267,0.079,5.664-5.692,5.664c-4.979,0-11.172,0.194-17.631,2.75
			c-6.457-2.556-12.65-2.75-17.63-2.75c-5.772,0-5.701-5.397-5.69-5.664V40.155c0-2.761-4.141-2.761-4.141,0v18.813
			c-0.073,5.58,3.85,9.829,9.831,9.829c3.756,0,7.978,0.125,12.37,1.254c-2.357,1.441-4.716,3.245-7.032,5.56
			c-1.953,1.954,0.975,4.881,2.928,2.929c3.083-3.083,6.238-5.177,9.366-6.621c3.126,1.444,6.28,3.538,9.364,6.621
			c1.95,1.952,4.878-0.975,2.927-2.929c-2.316-2.315-4.674-4.118-7.031-5.56c4.392-1.129,8.614-1.254,12.369-1.254
			c5.982,0,9.903-4.249,9.83-9.829V25.185C760.161,22.426,756.022,22.426,756.022,25.185"/>
	</g>
	<path fill="#FFFFFF" d="M742.143,41.588l3.665-6.827v13.593L742.143,41.588z M732.694,46.467l-2.577-4.879l2.577-4.867l2.574,4.867
		L732.694,46.467z M719.591,48.356V34.758l3.663,6.83L719.591,48.356z M712.675,21.409V61.77h6.882l7.179-13.874l3.381,6.494h5.151
		l3.39-6.494l7.15,13.874h6.915V21.409h-6.882l-7.188,13.872l-3.385-6.487l-5.151-0.002l-3.381,6.489l-7.145-13.872H712.675z"/>
	<text transform="matrix(1 0 0 1 773.3734 58.5405)"><tspan x="0" y="0" fill="#FFFFFF" font-family="'MyriadPro-Semibold'" font-size="10">ORD</tspan><tspan x="20.16" y="0" fill="#FFFFFF" font-family="'MyriadPro-Semibold'" font-size="10">E</tspan><tspan x="25.5" y="0" fill="#FFFFFF" font-family="'MyriadPro-Semibold'" font-size="10">N </tspan><tspan x="34.53" y="0" fill="#FFFFFF" font-family="'MyriadPro-Semibold'" font-size="10">D</tspan><tspan x="41.549" y="0" fill="#FFFFFF" font-family="'MyriadPro-Semibold'" font-size="10">E </tspan><tspan x="48.97" y="0" fill="#FFFFFF" font-family="'MyriadPro-Semibold'" font-size="10">L</tspan><tspan x="54.14" y="0" fill="#FFFFFF" font-family="'MyriadPro-Semibold'" font-size="10">A </tspan><tspan x="62.771" y="0" fill="#FFFFFF" font-family="'MyriadPro-Semibold'" font-size="10">C</tspan><tspan x="68.59" y="0" fill="#FFFFFF" font-family="'MyriadPro-Semibold'" font-size="10">O</tspan><tspan x="75.83" y="0" fill="#FFFFFF" font-family="'MyriadPro-Semibold'" font-size="10">M</tspan><tspan x="84.29" y="0" fill="#FFFFFF" font-family="'MyriadPro-Semibold'" font-size="10">P</tspan><tspan x="89.38" y="0" fill="#FFFFFF" font-family="'MyriadPro-Semibold'" font-size="10">AÑÍ</tspan><tspan x="105.738" y="0" fill="#FFFFFF" font-family="'MyriadPro-Semibold'" font-size="10">A </tspan><tspan x="114.369" y="0" fill="#FFFFFF" font-family="'MyriadPro-Semibold'" font-size="10">D</tspan><tspan x="121.399" y="0" fill="#FFFFFF" font-family="'MyriadPro-Semibold'" font-size="10">E </tspan><tspan x="128.819" y="0" fill="#FFFFFF" font-family="'MyriadPro-Semibold'" font-size="10">M</tspan><tspan x="137.229" y="0" fill="#FFFFFF" font-family="'MyriadPro-Semibold'" font-size="10">ARÍ</tspan><tspan x="152.518" y="0" fill="#FFFFFF" font-family="'MyriadPro-Semibold'" font-size="10">A N</tspan><tspan x="168.008" y="0" fill="#FFFFFF" font-family="'MyriadPro-Semibold'" font-size="10">.</tspan><tspan x="170.459" y="0" fill="#FFFFFF" font-family="'MyriadPro-Semibold'" font-size="10">S</tspan><tspan x="175.749" y="0" fill="#FFFFFF" font-family="'MyriadPro-Semibold'" font-size="10">.</tspan></text>
	<text transform="matrix(1 0 0 1 772.2947 44.5005)"><tspan x="0" y="0" fill="#FFFFFF" font-family="'CineplexLT-Bold'" font-size="18.8668">Co</tspan><tspan x="17.3" y="0" fill="#FFFFFF" font-family="'CineplexLT-Bold'" font-size="18.8668">l</tspan><tspan x="21.017" y="0" fill="#FFFFFF" font-family="'CineplexLT-Bold'" font-size="18.8668">e</tspan><tspan x="28.318" y="0" fill="#FFFFFF" font-family="'CineplexLT-Bold'" font-size="18.8668">gi</tspan><tspan x="40.148" y="0" fill="#FFFFFF" font-family="'CineplexLT-Bold'" font-size="18.8668">o</tspan><tspan x="47.864" y="0" fill="#FFFFFF" font-family="'CineplexLT-Bold'" font-size="18.8668" letter-spacing="1"> </tspan><tspan x="54.826" y="0" fill="#FFFFFF" font-family="'CineplexLT-Bold'" font-size="18.8668">C</tspan><tspan x="64.41" y="0" fill="#FFFFFF" font-family="'CineplexLT-Bold'" font-size="18.8668">om</tspan><tspan x="84.333" y="0" fill="#FFFFFF" font-family="'CineplexLT-Bold'" font-size="18.8668">pañ</tspan><tspan x="108.349" y="0" fill="#FFFFFF" font-family="'CineplexLT-Bold'" font-size="18.8668">í</tspan><tspan x="112.349" y="0" fill="#FFFFFF" font-family="'CineplexLT-Bold'" font-size="18.8668">a</tspan><tspan x="119.821" y="0" fill="#FFFFFF" font-family="'CineplexLT-Bold'" font-size="18.8668" letter-spacing="-1"> </tspan><tspan x="124.103" y="0" fill="#FFFFFF" font-family="'CineplexLT-Bold'" font-size="18.8668">de</tspan><tspan x="139.629" y="0" fill="#FFFFFF" font-family="'CineplexLT-Bold'" font-size="18.8668"> </tspan><tspan x="143.968" y="0" fill="#FFFFFF" font-family="'CineplexLT-Bold'" font-size="18.8668" letter-spacing="-2">M</tspan><tspan x="159.685" y="0" fill="#FFFFFF" font-family="'CineplexLT-Bold'" font-size="18.8668" letter-spacing="-1">ar</tspan><tspan x="172.382" y="0" fill="#FFFFFF" font-family="'CineplexLT-Bold'" font-size="18.8668">í</tspan><tspan x="176.419" y="0" fill="#FFFFFF" font-family="'CineplexLT-Bold'" font-size="18.8668">a</tspan><tspan x="183.928" y="0" fill="#FFFFFF" font-family="'CineplexLT-Bold'" font-size="18.8668" letter-spacing="-4">  </tspan><tspan x="185.06" y="0" fill="#FFFFFF" font-family="'CineplexLT-Bold'" font-size="18.8668" letter-spacing="-1"> </tspan><tspan x="188.456" y="0" fill="#FFFFFF" font-family="'CineplexLT-Bold'" font-size="18.8668">•</tspan><tspan x="195.455" y="0" fill="#FFFFFF" font-family="'CineplexLT-Bold'" font-size="18.8668" letter-spacing="-1"> </tspan><tspan x="199.227" y="0" fill="#FFFFFF" font-family="'CineplexLT-Bold'" font-size="18.8668">Se</tspan><tspan x="215.868" y="0" fill="#FFFFFF" font-family="'CineplexLT-Bold'" font-size="18.8668">mi</tspan><tspan x="232.093" y="0" fill="#FFFFFF" font-family="'CineplexLT-Bold'" font-size="18.8668">na</tspan><tspan x="248.017" y="0" fill="#FFFFFF" font-family="'CineplexLT-Bold'" font-size="18.8668">ri</tspan><tspan x="257.375" y="0" fill="#FFFFFF" font-family="'CineplexLT-Bold'" font-size="18.8668">o</tspan></text>
	<g>
		<path fill="#FFFFFF" d="M1708.141,15.592c0-1.574,1.278-2.851,2.854-2.851c1.575,0,2.85,1.277,2.85,2.851
			c0,1.577-1.275,2.854-2.85,2.854C1709.419,18.446,1708.141,17.169,1708.141,15.592"/>
		<path fill="#FFFFFF" d="M1702.472,15.474c0-1.136,0.921-2.058,2.058-2.058c1.136,0,2.061,0.922,2.061,2.058
			c0,1.139-0.925,2.061-2.061,2.061C1703.393,17.535,1702.472,16.613,1702.472,15.474"/>
		<path fill="#FFFFFF" d="M1715.303,15.474c0-1.136,0.923-2.058,2.061-2.058c1.134,0,2.058,0.922,2.058,2.058
			c0,1.139-0.924,2.061-2.058,2.061C1716.226,17.535,1715.303,16.613,1715.303,15.474"/>
		<path fill="#FFFFFF" d="M1697.975,15.591c0-0.861,0.698-1.556,1.557-1.556c0.861,0,1.558,0.695,1.558,1.556
			c0,0.86-0.697,1.559-1.558,1.559C1698.673,17.15,1697.975,16.451,1697.975,15.591"/>
		<path fill="#FFFFFF" d="M1720.79,15.591c0-0.861,0.697-1.556,1.557-1.556c0.858,0,1.557,0.695,1.557,1.556
			c0,0.86-0.699,1.559-1.557,1.559C1721.487,17.15,1720.79,16.451,1720.79,15.591"/>
		<path fill="#FFFFFF" d="M1734.315,25.185l0.001,33.811c0.007,0.267,0.079,5.664-5.692,5.664c-4.979,0-11.172,0.194-17.631,2.75
			c-6.457-2.556-12.65-2.75-17.63-2.75c-5.772,0-5.701-5.397-5.69-5.664V40.155c0-2.761-4.141-2.761-4.141,0v18.813
			c-0.073,5.58,3.85,9.829,9.831,9.829c3.756,0,7.978,0.125,12.37,1.254c-2.357,1.441-4.716,3.245-7.032,5.56
			c-1.953,1.954,0.975,4.881,2.928,2.929c3.083-3.083,6.238-5.177,9.366-6.621c3.126,1.444,6.28,3.538,9.364,6.621
			c1.95,1.952,4.878-0.975,2.927-2.929c-2.316-2.315-4.674-4.118-7.031-5.56c4.392-1.129,8.614-1.254,12.369-1.254
			c5.982,0,9.903-4.249,9.83-9.829V25.185C1738.454,22.426,1734.315,22.426,1734.315,25.185"/>
	</g>
	<path fill="#FFFFFF" d="M1720.437,41.588l3.665-6.827v13.593L1720.437,41.588z M1710.988,46.467l-2.577-4.879l2.577-4.867
		l2.574,4.867L1710.988,46.467z M1697.885,48.356V34.758l3.663,6.83L1697.885,48.356z M1690.969,21.409V61.77h6.882l7.179-13.874
		l3.381,6.494h5.151l3.39-6.494l7.15,13.874h6.915V21.409h-6.882l-7.188,13.872l-3.385-6.487l-5.151-0.002l-3.381,6.489
		l-7.145-13.872H1690.969z"/>
	<text transform="matrix(1 0 0 1 1751.6667 58.5405)"><tspan x="0" y="0" fill="#FFFFFF" font-family="'MyriadPro-Semibold'" font-size="10">ORD</tspan><tspan x="20.16" y="0" fill="#FFFFFF" font-family="'MyriadPro-Semibold'" font-size="10">E</tspan><tspan x="25.5" y="0" fill="#FFFFFF" font-family="'MyriadPro-Semibold'" font-size="10">N </tspan><tspan x="34.53" y="0" fill="#FFFFFF" font-family="'MyriadPro-Semibold'" font-size="10">D</tspan><tspan x="41.549" y="0" fill="#FFFFFF" font-family="'MyriadPro-Semibold'" font-size="10">E </tspan><tspan x="48.97" y="0" fill="#FFFFFF" font-family="'MyriadPro-Semibold'" font-size="10">L</tspan><tspan x="54.14" y="0" fill="#FFFFFF" font-family="'MyriadPro-Semibold'" font-size="10">A </tspan><tspan x="62.771" y="0" fill="#FFFFFF" font-family="'MyriadPro-Semibold'" font-size="10">C</tspan><tspan x="68.59" y="0" fill="#FFFFFF" font-family="'MyriadPro-Semibold'" font-size="10">O</tspan><tspan x="75.83" y="0" fill="#FFFFFF" font-family="'MyriadPro-Semibold'" font-size="10">M</tspan><tspan x="84.29" y="0" fill="#FFFFFF" font-family="'MyriadPro-Semibold'" font-size="10">P</tspan><tspan x="89.38" y="0" fill="#FFFFFF" font-family="'MyriadPro-Semibold'" font-size="10">AÑÍ</tspan><tspan x="105.738" y="0" fill="#FFFFFF" font-family="'MyriadPro-Semibold'" font-size="10">A </tspan><tspan x="114.369" y="0" fill="#FFFFFF" font-family="'MyriadPro-Semibold'" font-size="10">D</tspan><tspan x="121.399" y="0" fill="#FFFFFF" font-family="'MyriadPro-Semibold'" font-size="10">E </tspan><tspan x="128.819" y="0" fill="#FFFFFF" font-family="'MyriadPro-Semibold'" font-size="10">M</tspan><tspan x="137.229" y="0" fill="#FFFFFF" font-family="'MyriadPro-Semibold'" font-size="10">ARÍ</tspan><tspan x="152.518" y="0" fill="#FFFFFF" font-family="'MyriadPro-Semibold'" font-size="10">A N</tspan><tspan x="168.008" y="0" fill="#FFFFFF" font-family="'MyriadPro-Semibold'" font-size="10">.</tspan><tspan x="170.459" y="0" fill="#FFFFFF" font-family="'MyriadPro-Semibold'" font-size="10">S</tspan><tspan x="175.749" y="0" fill="#FFFFFF" font-family="'MyriadPro-Semibold'" font-size="10">.</tspan></text>
	<text transform="matrix(1 0 0 1 1750.5881 44.5005)"><tspan x="0" y="0" fill="#FFFFFF" font-family="'CineplexLT-Bold'" font-size="18.8668">Co</tspan><tspan x="17.3" y="0" fill="#FFFFFF" font-family="'CineplexLT-Bold'" font-size="18.8668">l</tspan><tspan x="21.017" y="0" fill="#FFFFFF" font-family="'CineplexLT-Bold'" font-size="18.8668">e</tspan><tspan x="28.318" y="0" fill="#FFFFFF" font-family="'CineplexLT-Bold'" font-size="18.8668">gi</tspan><tspan x="40.148" y="0" fill="#FFFFFF" font-family="'CineplexLT-Bold'" font-size="18.8668">o</tspan><tspan x="47.864" y="0" fill="#FFFFFF" font-family="'CineplexLT-Bold'" font-size="18.8668" letter-spacing="1"> </tspan><tspan x="54.826" y="0" fill="#FFFFFF" font-family="'CineplexLT-Bold'" font-size="18.8668">C</tspan><tspan x="64.41" y="0" fill="#FFFFFF" font-family="'CineplexLT-Bold'" font-size="18.8668">om</tspan><tspan x="84.333" y="0" fill="#FFFFFF" font-family="'CineplexLT-Bold'" font-size="18.8668">pañ</tspan><tspan x="108.349" y="0" fill="#FFFFFF" font-family="'CineplexLT-Bold'" font-size="18.8668">í</tspan><tspan x="112.349" y="0" fill="#FFFFFF" font-family="'CineplexLT-Bold'" font-size="18.8668">a</tspan><tspan x="119.821" y="0" fill="#FFFFFF" font-family="'CineplexLT-Bold'" font-size="18.8668" letter-spacing="-1"> </tspan><tspan x="124.103" y="0" fill="#FFFFFF" font-family="'CineplexLT-Bold'" font-size="18.8668">de</tspan><tspan x="139.629" y="0" fill="#FFFFFF" font-family="'CineplexLT-Bold'" font-size="18.8668"> </tspan><tspan x="143.968" y="0" fill="#FFFFFF" font-family="'CineplexLT-Bold'" font-size="18.8668" letter-spacing="-2">M</tspan><tspan x="159.685" y="0" fill="#FFFFFF" font-family="'CineplexLT-Bold'" font-size="18.8668" letter-spacing="-1">ar</tspan><tspan x="172.382" y="0" fill="#FFFFFF" font-family="'CineplexLT-Bold'" font-size="18.8668">í</tspan><tspan x="176.419" y="0" fill="#FFFFFF" font-family="'CineplexLT-Bold'" font-size="18.8668">a</tspan><tspan x="183.928" y="0" fill="#FFFFFF" font-family="'CineplexLT-Bold'" font-size="18.8668" letter-spacing="-4">  </tspan><tspan x="185.06" y="0" fill="#FFFFFF" font-family="'CineplexLT-Bold'" font-size="18.8668" letter-spacing="-1"> </tspan><tspan x="188.456" y="0" fill="#FFFFFF" font-family="'CineplexLT-Bold'" font-size="18.8668">•</tspan><tspan x="195.455" y="0" fill="#FFFFFF" font-family="'CineplexLT-Bold'" font-size="18.8668" letter-spacing="-1"> </tspan><tspan x="199.227" y="0" fill="#FFFFFF" font-family="'CineplexLT-Bold'" font-size="18.8668">Apoquindo</tspan></text>
	<g>
		<path fill="#FFFFFF" d="M2130.913,15.592c0-1.574,1.278-2.851,2.854-2.851c1.575,0,2.85,1.277,2.85,2.851
			c0,1.577-1.275,2.854-2.85,2.854C2132.191,18.446,2130.913,17.169,2130.913,15.592"/>
		<path fill="#FFFFFF" d="M2125.244,15.474c0-1.136,0.921-2.058,2.058-2.058c1.136,0,2.061,0.922,2.061,2.058
			c0,1.139-0.925,2.061-2.061,2.061C2126.166,17.535,2125.244,16.613,2125.244,15.474"/>
		<path fill="#FFFFFF" d="M2138.075,15.474c0-1.136,0.923-2.058,2.061-2.058c1.134,0,2.058,0.922,2.058,2.058
			c0,1.139-0.924,2.061-2.058,2.061C2138.998,17.535,2138.075,16.613,2138.075,15.474"/>
		<path fill="#FFFFFF" d="M2120.748,15.591c0-0.861,0.698-1.556,1.557-1.556c0.861,0,1.558,0.695,1.558,1.556
			c0,0.86-0.697,1.559-1.558,1.559C2121.446,17.15,2120.748,16.451,2120.748,15.591"/>
		<path fill="#FFFFFF" d="M2143.562,15.591c0-0.861,0.697-1.556,1.557-1.556c0.858,0,1.557,0.695,1.557,1.556
			c0,0.86-0.699,1.559-1.557,1.559C2144.259,17.15,2143.562,16.451,2143.562,15.591"/>
		<path fill="#FFFFFF" d="M2157.087,25.185l0.001,33.811c0.007,0.267,0.079,5.664-5.692,5.664c-4.979,0-11.172,0.194-17.631,2.75
			c-6.457-2.556-12.65-2.75-17.63-2.75c-5.772,0-5.701-5.397-5.69-5.664V40.155c0-2.761-4.141-2.761-4.141,0v18.813
			c-0.073,5.58,3.85,9.829,9.831,9.829c3.756,0,7.978,0.125,12.37,1.254c-2.357,1.441-4.716,3.245-7.032,5.56
			c-1.953,1.954,0.975,4.881,2.928,2.929c3.083-3.083,6.238-5.177,9.366-6.621c3.126,1.444,6.28,3.538,9.364,6.621
			c1.95,1.952,4.878-0.975,2.927-2.929c-2.316-2.315-4.674-4.118-7.031-5.56c4.392-1.129,8.614-1.254,12.369-1.254
			c5.982,0,9.903-4.249,9.83-9.829V25.185C2161.226,22.426,2157.087,22.426,2157.087,25.185"/>
	</g>
	<path fill="#FFFFFF" d="M2143.209,41.588l3.665-6.827v13.593L2143.209,41.588z M2133.76,46.467l-2.577-4.879l2.577-4.867
		l2.574,4.867L2133.76,46.467z M2120.657,48.356V34.758l3.663,6.83L2120.657,48.356z M2113.741,21.409V61.77h6.882l7.179-13.874
		l3.381,6.494h5.151l3.39-6.494l7.15,13.874h6.915V21.409h-6.882l-7.188,13.872l-3.385-6.487l-5.151-0.002l-3.381,6.489
		l-7.145-13.872H2113.741z"/>
	<text transform="matrix(1 0 0 1 2174.439 58.5405)"><tspan x="0" y="0" fill="#FFFFFF" font-family="'MyriadPro-Semibold'" font-size="10">ORD</tspan><tspan x="20.16" y="0" fill="#FFFFFF" font-family="'MyriadPro-Semibold'" font-size="10">E</tspan><tspan x="25.5" y="0" fill="#FFFFFF" font-family="'MyriadPro-Semibold'" font-size="10">N </tspan><tspan x="34.53" y="0" fill="#FFFFFF" font-family="'MyriadPro-Semibold'" font-size="10">D</tspan><tspan x="41.549" y="0" fill="#FFFFFF" font-family="'MyriadPro-Semibold'" font-size="10">E </tspan><tspan x="48.97" y="0" fill="#FFFFFF" font-family="'MyriadPro-Semibold'" font-size="10">L</tspan><tspan x="54.14" y="0" fill="#FFFFFF" font-family="'MyriadPro-Semibold'" font-size="10">A </tspan><tspan x="62.771" y="0" fill="#FFFFFF" font-family="'MyriadPro-Semibold'" font-size="10">C</tspan><tspan x="68.59" y="0" fill="#FFFFFF" font-family="'MyriadPro-Semibold'" font-size="10">O</tspan><tspan x="75.83" y="0" fill="#FFFFFF" font-family="'MyriadPro-Semibold'" font-size="10">M</tspan><tspan x="84.29" y="0" fill="#FFFFFF" font-family="'MyriadPro-Semibold'" font-size="10">P</tspan><tspan x="89.38" y="0" fill="#FFFFFF" font-family="'MyriadPro-Semibold'" font-size="10">AÑÍ</tspan><tspan x="105.738" y="0" fill="#FFFFFF" font-family="'MyriadPro-Semibold'" font-size="10">A </tspan><tspan x="114.369" y="0" fill="#FFFFFF" font-family="'MyriadPro-Semibold'" font-size="10">D</tspan><tspan x="121.399" y="0" fill="#FFFFFF" font-family="'MyriadPro-Semibold'" font-size="10">E </tspan><tspan x="128.819" y="0" fill="#FFFFFF" font-family="'MyriadPro-Semibold'" font-size="10">M</tspan><tspan x="137.229" y="0" fill="#FFFFFF" font-family="'MyriadPro-Semibold'" font-size="10">ARÍ</tspan><tspan x="152.518" y="0" fill="#FFFFFF" font-family="'MyriadPro-Semibold'" font-size="10">A N</tspan><tspan x="168.008" y="0" fill="#FFFFFF" font-family="'MyriadPro-Semibold'" font-size="10">.</tspan><tspan x="170.459" y="0" fill="#FFFFFF" font-family="'MyriadPro-Semibold'" font-size="10">S</tspan><tspan x="175.749" y="0" fill="#FFFFFF" font-family="'MyriadPro-Semibold'" font-size="10">.</tspan></text>
	<text transform="matrix(1 0 0 1 2173.3604 44.5005)"><tspan x="0" y="0" fill="#FFFFFF" font-family="'CineplexLT-Bold'" font-size="18.8668">Co</tspan><tspan x="17.3" y="0" fill="#FFFFFF" font-family="'CineplexLT-Bold'" font-size="18.8668">l</tspan><tspan x="21.017" y="0" fill="#FFFFFF" font-family="'CineplexLT-Bold'" font-size="18.8668">e</tspan><tspan x="28.318" y="0" fill="#FFFFFF" font-family="'CineplexLT-Bold'" font-size="18.8668">gi</tspan><tspan x="40.148" y="0" fill="#FFFFFF" font-family="'CineplexLT-Bold'" font-size="18.8668">o</tspan><tspan x="47.864" y="0" fill="#FFFFFF" font-family="'CineplexLT-Bold'" font-size="18.8668" letter-spacing="1"> </tspan><tspan x="54.826" y="0" fill="#FFFFFF" font-family="'CineplexLT-Bold'" font-size="18.8668">C</tspan><tspan x="64.41" y="0" fill="#FFFFFF" font-family="'CineplexLT-Bold'" font-size="18.8668">om</tspan><tspan x="84.333" y="0" fill="#FFFFFF" font-family="'CineplexLT-Bold'" font-size="18.8668">pañ</tspan><tspan x="108.349" y="0" fill="#FFFFFF" font-family="'CineplexLT-Bold'" font-size="18.8668">í</tspan><tspan x="112.349" y="0" fill="#FFFFFF" font-family="'CineplexLT-Bold'" font-size="18.8668">a</tspan><tspan x="119.821" y="0" fill="#FFFFFF" font-family="'CineplexLT-Bold'" font-size="18.8668" letter-spacing="-1"> </tspan><tspan x="124.103" y="0" fill="#FFFFFF" font-family="'CineplexLT-Bold'" font-size="18.8668">de</tspan><tspan x="139.629" y="0" fill="#FFFFFF" font-family="'CineplexLT-Bold'" font-size="18.8668"> </tspan><tspan x="143.968" y="0" fill="#FFFFFF" font-family="'CineplexLT-Bold'" font-size="18.8668" letter-spacing="-2">M</tspan><tspan x="159.685" y="0" fill="#FFFFFF" font-family="'CineplexLT-Bold'" font-size="18.8668" letter-spacing="-1">ar</tspan><tspan x="172.382" y="0" fill="#FFFFFF" font-family="'CineplexLT-Bold'" font-size="18.8668">í</tspan><tspan x="176.419" y="0" fill="#FFFFFF" font-family="'CineplexLT-Bold'" font-size="18.8668">a</tspan><tspan x="183.928" y="0" fill="#FFFFFF" font-family="'CineplexLT-Bold'" font-size="18.8668" letter-spacing="-4">  </tspan><tspan x="185.06" y="0" fill="#FFFFFF" font-family="'CineplexLT-Bold'" font-size="18.8668" letter-spacing="-1"> </tspan><tspan x="188.456" y="0" fill="#FFFFFF" font-family="'CineplexLT-Bold'" font-size="18.8668">•</tspan><tspan x="195.455" y="0" fill="#FFFFFF" font-family="'CineplexLT-Bold'" font-size="18.8668" letter-spacing="-1"> </tspan><tspan x="199.227" y="0" fill="#FFFFFF" font-family="'CineplexLT-Bold'" font-size="18.8668">Apoquindo</tspan></text>
	<g>
		<path fill="#FFFFFF" d="M1146.12,15.592c0-1.574,1.278-2.851,2.854-2.851c1.575,0,2.85,1.277,2.85,2.851
			c0,1.577-1.275,2.854-2.85,2.854C1147.399,18.446,1146.12,17.169,1146.12,15.592"/>
		<path fill="#FFFFFF" d="M1140.452,15.474c0-1.136,0.921-2.058,2.058-2.058c1.136,0,2.061,0.922,2.061,2.058
			c0,1.139-0.925,2.061-2.061,2.061C1141.373,17.535,1140.452,16.613,1140.452,15.474"/>
		<path fill="#FFFFFF" d="M1153.283,15.474c0-1.136,0.923-2.058,2.061-2.058c1.134,0,2.058,0.922,2.058,2.058
			c0,1.139-0.924,2.061-2.058,2.061C1154.206,17.535,1153.283,16.613,1153.283,15.474"/>
		<path fill="#FFFFFF" d="M1135.955,15.591c0-0.861,0.698-1.556,1.557-1.556c0.861,0,1.558,0.695,1.558,1.556
			c0,0.86-0.697,1.559-1.558,1.559C1136.653,17.15,1135.955,16.451,1135.955,15.591"/>
		<path fill="#FFFFFF" d="M1158.769,15.591c0-0.861,0.697-1.556,1.557-1.556c0.858,0,1.557,0.695,1.557,1.556
			c0,0.86-0.699,1.559-1.557,1.559C1159.466,17.15,1158.769,16.451,1158.769,15.591"/>
		<path fill="#FFFFFF" d="M1172.295,25.185l0.001,33.811c0.007,0.267,0.079,5.664-5.692,5.664c-4.979,0-11.172,0.194-17.631,2.75
			c-6.457-2.556-12.65-2.75-17.63-2.75c-5.772,0-5.701-5.397-5.69-5.664V40.155c0-2.761-4.141-2.761-4.141,0v18.813
			c-0.073,5.58,3.85,9.829,9.831,9.829c3.756,0,7.978,0.125,12.37,1.254c-2.357,1.441-4.716,3.245-7.032,5.56
			c-1.953,1.954,0.975,4.881,2.928,2.929c3.083-3.083,6.238-5.177,9.366-6.621c3.126,1.444,6.28,3.538,9.364,6.621
			c1.95,1.952,4.878-0.975,2.927-2.929c-2.316-2.315-4.674-4.118-7.031-5.56c4.392-1.129,8.614-1.254,12.369-1.254
			c5.982,0,9.903-4.249,9.83-9.829V25.185C1176.434,22.426,1172.295,22.426,1172.295,25.185"/>
	</g>
	<path fill="#FFFFFF" d="M1158.416,41.588l3.665-6.827v13.593L1158.416,41.588z M1148.967,46.467l-2.577-4.879l2.577-4.867
		l2.574,4.867L1148.967,46.467z M1135.864,48.356V34.758l3.663,6.83L1135.864,48.356z M1128.948,21.409V61.77h6.882l7.179-13.874
		l3.381,6.494h5.151l3.39-6.494l7.15,13.874h6.915V21.409h-6.882l-7.188,13.872l-3.385-6.487l-5.151-0.002l-3.381,6.489
		l-7.145-13.872H1128.948z"/>
	<text transform="matrix(1 0 0 1 1189.6465 58.5405)"><tspan x="0" y="0" fill="#FFFFFF" font-family="'MyriadPro-Semibold'" font-size="10">ORD</tspan><tspan x="20.16" y="0" fill="#FFFFFF" font-family="'MyriadPro-Semibold'" font-size="10">E</tspan><tspan x="25.5" y="0" fill="#FFFFFF" font-family="'MyriadPro-Semibold'" font-size="10">N </tspan><tspan x="34.53" y="0" fill="#FFFFFF" font-family="'MyriadPro-Semibold'" font-size="10">D</tspan><tspan x="41.549" y="0" fill="#FFFFFF" font-family="'MyriadPro-Semibold'" font-size="10">E </tspan><tspan x="48.97" y="0" fill="#FFFFFF" font-family="'MyriadPro-Semibold'" font-size="10">L</tspan><tspan x="54.14" y="0" fill="#FFFFFF" font-family="'MyriadPro-Semibold'" font-size="10">A </tspan><tspan x="62.771" y="0" fill="#FFFFFF" font-family="'MyriadPro-Semibold'" font-size="10">C</tspan><tspan x="68.59" y="0" fill="#FFFFFF" font-family="'MyriadPro-Semibold'" font-size="10">O</tspan><tspan x="75.83" y="0" fill="#FFFFFF" font-family="'MyriadPro-Semibold'" font-size="10">M</tspan><tspan x="84.29" y="0" fill="#FFFFFF" font-family="'MyriadPro-Semibold'" font-size="10">P</tspan><tspan x="89.38" y="0" fill="#FFFFFF" font-family="'MyriadPro-Semibold'" font-size="10">AÑÍ</tspan><tspan x="105.738" y="0" fill="#FFFFFF" font-family="'MyriadPro-Semibold'" font-size="10">A </tspan><tspan x="114.369" y="0" fill="#FFFFFF" font-family="'MyriadPro-Semibold'" font-size="10">D</tspan><tspan x="121.399" y="0" fill="#FFFFFF" font-family="'MyriadPro-Semibold'" font-size="10">E </tspan><tspan x="128.819" y="0" fill="#FFFFFF" font-family="'MyriadPro-Semibold'" font-size="10">M</tspan><tspan x="137.229" y="0" fill="#FFFFFF" font-family="'MyriadPro-Semibold'" font-size="10">ARÍ</tspan><tspan x="152.518" y="0" fill="#FFFFFF" font-family="'MyriadPro-Semibold'" font-size="10">A N</tspan><tspan x="168.008" y="0" fill="#FFFFFF" font-family="'MyriadPro-Semibold'" font-size="10">.</tspan><tspan x="170.459" y="0" fill="#FFFFFF" font-family="'MyriadPro-Semibold'" font-size="10">S</tspan><tspan x="175.749" y="0" fill="#FFFFFF" font-family="'MyriadPro-Semibold'" font-size="10">.</tspan></text>
	<text transform="matrix(1 0 0 1 1188.5679 44.5005)"><tspan x="0" y="0" fill="#FFFFFF" font-family="'CineplexLT-Bold'" font-size="18.8668">Co</tspan><tspan x="17.3" y="0" fill="#FFFFFF" font-family="'CineplexLT-Bold'" font-size="18.8668">l</tspan><tspan x="21.017" y="0" fill="#FFFFFF" font-family="'CineplexLT-Bold'" font-size="18.8668">e</tspan><tspan x="28.318" y="0" fill="#FFFFFF" font-family="'CineplexLT-Bold'" font-size="18.8668">gi</tspan><tspan x="40.148" y="0" fill="#FFFFFF" font-family="'CineplexLT-Bold'" font-size="18.8668">o</tspan><tspan x="47.864" y="0" fill="#FFFFFF" font-family="'CineplexLT-Bold'" font-size="18.8668" letter-spacing="1"> </tspan><tspan x="54.826" y="0" fill="#FFFFFF" font-family="'CineplexLT-Bold'" font-size="18.8668">C</tspan><tspan x="64.41" y="0" fill="#FFFFFF" font-family="'CineplexLT-Bold'" font-size="18.8668">om</tspan><tspan x="84.333" y="0" fill="#FFFFFF" font-family="'CineplexLT-Bold'" font-size="18.8668">pañ</tspan><tspan x="108.349" y="0" fill="#FFFFFF" font-family="'CineplexLT-Bold'" font-size="18.8668">í</tspan><tspan x="112.349" y="0" fill="#FFFFFF" font-family="'CineplexLT-Bold'" font-size="18.8668">a</tspan><tspan x="119.821" y="0" fill="#FFFFFF" font-family="'CineplexLT-Bold'" font-size="18.8668" letter-spacing="-1"> </tspan><tspan x="124.103" y="0" fill="#FFFFFF" font-family="'CineplexLT-Bold'" font-size="18.8668">de</tspan><tspan x="139.629" y="0" fill="#FFFFFF" font-family="'CineplexLT-Bold'" font-size="18.8668"> </tspan><tspan x="143.968" y="0" fill="#FFFFFF" font-family="'CineplexLT-Bold'" font-size="18.8668" letter-spacing="-2">M</tspan><tspan x="159.685" y="0" fill="#FFFFFF" font-family="'CineplexLT-Bold'" font-size="18.8668" letter-spacing="-1">ar</tspan><tspan x="172.382" y="0" fill="#FFFFFF" font-family="'CineplexLT-Bold'" font-size="18.8668">í</tspan><tspan x="176.419" y="0" fill="#FFFFFF" font-family="'CineplexLT-Bold'" font-size="18.8668">a</tspan><tspan x="183.928" y="0" fill="#FFFFFF" font-family="'CineplexLT-Bold'" font-size="18.8668" letter-spacing="-4">  </tspan><tspan x="185.06" y="0" fill="#FFFFFF" font-family="'CineplexLT-Bold'" font-size="18.8668" letter-spacing="-1"> </tspan><tspan x="188.456" y="0" fill="#FFFFFF" font-family="'CineplexLT-Bold'" font-size="18.8668">•</tspan><tspan x="195.455" y="0" fill="#FFFFFF" font-family="'CineplexLT-Bold'" font-size="18.8668" letter-spacing="-1"> </tspan><tspan x="199.227" y="0" fill="#FFFFFF" font-family="'CineplexLT-Bold'" font-size="18.8668">Se</tspan><tspan x="215.868" y="0" fill="#FFFFFF" font-family="'CineplexLT-Bold'" font-size="18.8668">mi</tspan><tspan x="232.093" y="0" fill="#FFFFFF" font-family="'CineplexLT-Bold'" font-size="18.8668">na</tspan><tspan x="248.017" y="0" fill="#FFFFFF" font-family="'CineplexLT-Bold'" font-size="18.8668">ri</tspan><tspan x="257.375" y="0" fill="#FFFFFF" font-family="'CineplexLT-Bold'" font-size="18.8668">o</tspan></text>
</g>
<g id="Capa_2">
	<g>
		<path fill="#FFFFFF" d="M587.719,12.152c0-1.574,1.278-2.851,2.854-2.851c1.575,0,2.85,1.277,2.85,2.851
			c0,1.577-1.275,2.854-2.85,2.854C588.997,15.006,587.719,13.729,587.719,12.152"/>
		<path fill="#FFFFFF" d="M582.05,12.033c0-1.136,0.921-2.058,2.058-2.058c1.136,0,2.061,0.922,2.061,2.058
			c0,1.139-0.925,2.061-2.061,2.061C582.971,14.094,582.05,13.172,582.05,12.033"/>
		<path fill="#FFFFFF" d="M594.881,12.033c0-1.136,0.923-2.058,2.061-2.058c1.134,0,2.058,0.922,2.058,2.058
			c0,1.139-0.924,2.061-2.058,2.061C595.804,14.094,594.881,13.172,594.881,12.033"/>
		<path fill="#FFFFFF" d="M577.553,12.151c0-0.861,0.698-1.556,1.557-1.556c0.861,0,1.558,0.695,1.558,1.556
			c0,0.86-0.697,1.559-1.558,1.559C578.251,13.71,577.553,13.011,577.553,12.151"/>
		<path fill="#FFFFFF" d="M600.367,12.151c0-0.861,0.697-1.556,1.557-1.556c0.858,0,1.557,0.695,1.557,1.556
			c0,0.86-0.699,1.559-1.557,1.559C601.064,13.71,600.367,13.011,600.367,12.151"/>
		<path fill="#FFFFFF" d="M613.893,21.745l0.001,33.811c0.007,0.267,0.079,5.664-5.692,5.664c-4.979,0-11.172,0.194-17.631,2.75
			c-6.457-2.556-12.65-2.75-17.63-2.75c-5.772,0-5.701-5.397-5.69-5.664V36.715c0-2.761-4.141-2.761-4.141,0v18.813
			c-0.073,5.58,3.85,9.829,9.831,9.829c3.756,0,7.978,0.125,12.37,1.254c-2.357,1.441-4.716,3.245-7.032,5.56
			c-1.953,1.954,0.975,4.881,2.928,2.929c3.083-3.083,6.238-5.177,9.366-6.621c3.126,1.444,6.28,3.538,9.364,6.621
			c1.95,1.952,4.878-0.975,2.927-2.929c-2.316-2.315-4.674-4.118-7.031-5.56c4.392-1.129,8.614-1.254,12.369-1.254
			c5.982,0,9.903-4.249,9.83-9.829V21.745C618.032,18.986,613.893,18.986,613.893,21.745"/>
	</g>
	<path fill="#FFFFFF" d="M600.014,38.148l3.665-6.827v13.593L600.014,38.148z M590.565,43.027l-2.577-4.879l2.577-4.867l2.574,4.867
		L590.565,43.027z M577.462,44.916V31.318l3.663,6.83L577.462,44.916z M570.546,17.969V58.33h6.882l7.179-13.874l3.381,6.494h5.151
		l3.39-6.494l7.15,13.874h6.915V17.969h-6.882l-7.188,13.872l-3.385-6.487l-5.151-0.002l-3.381,6.489l-7.145-13.872H570.546z"/>
	<g>
		<path fill="#223B7E" d="M1566.012,12.152c0-1.574,1.278-2.851,2.854-2.851c1.575,0,2.85,1.277,2.85,2.851
			c0,1.577-1.275,2.854-2.85,2.854C1567.29,15.006,1566.012,13.729,1566.012,12.152"/>
		<path fill="#223B7E" d="M1560.344,12.033c0-1.136,0.921-2.058,2.058-2.058c1.136,0,2.061,0.922,2.061,2.058
			c0,1.139-0.925,2.061-2.061,2.061C1561.264,14.094,1560.344,13.172,1560.344,12.033"/>
		<path fill="#223B7E" d="M1573.174,12.033c0-1.136,0.923-2.058,2.061-2.058c1.134,0,2.058,0.922,2.058,2.058
			c0,1.139-0.924,2.061-2.058,2.061C1574.097,14.094,1573.174,13.172,1573.174,12.033"/>
		<path fill="#223B7E" d="M1555.847,12.151c0-0.861,0.698-1.556,1.557-1.556c0.861,0,1.558,0.695,1.558,1.556
			c0,0.86-0.697,1.559-1.558,1.559C1556.545,13.71,1555.847,13.011,1555.847,12.151"/>
		<path fill="#223B7E" d="M1578.661,12.151c0-0.861,0.697-1.556,1.557-1.556c0.858,0,1.557,0.695,1.557,1.556
			c0,0.86-0.699,1.559-1.557,1.559C1579.358,13.71,1578.661,13.011,1578.661,12.151"/>
		<path fill="#223B7E" d="M1592.186,21.745l0.001,33.811c0.007,0.267,0.079,5.664-5.692,5.664c-4.979,0-11.172,0.194-17.631,2.75
			c-6.457-2.556-12.65-2.75-17.63-2.75c-5.772,0-5.701-5.397-5.69-5.664V36.715c0-2.761-4.141-2.761-4.141,0v18.813
			c-0.073,5.58,3.85,9.829,9.831,9.829c3.756,0,7.978,0.125,12.37,1.254c-2.357,1.441-4.716,3.245-7.032,5.56
			c-1.953,1.954,0.975,4.881,2.928,2.929c3.083-3.083,6.238-5.177,9.366-6.621c3.126,1.444,6.28,3.538,9.364,6.621
			c1.95,1.952,4.878-0.975,2.927-2.929c-2.316-2.315-4.674-4.118-7.031-5.56c4.392-1.129,8.614-1.254,12.369-1.254
			c5.982,0,9.903-4.249,9.83-9.829V21.745C1596.325,18.986,1592.186,18.986,1592.186,21.745"/>
	</g>
	<path fill="#223B7E" d="M1578.308,38.148l3.665-6.827v13.593L1578.308,38.148z M1568.859,43.027l-2.577-4.879l2.577-4.867
		l2.574,4.867L1568.859,43.027z M1555.756,44.916V31.318l3.663,6.83L1555.756,44.916z M1548.84,17.969V58.33h6.882l7.179-13.874
		l3.381,6.494h5.151l3.39-6.494l7.15,13.874h6.915V17.969h-6.882l-7.188,13.872l-3.385-6.487l-5.151-0.002l-3.381,6.489
		l-7.145-13.872H1548.84z"/>
</g>
</svg>
