<?xml version="1.0" encoding="UTF-8" standalone="no"?>
<!-- Generator: Adobe Illustrator 17.0.0, SVG Export Plug-In . SVG Version: 6.00 Build 0)  -->

<svg
   xmlns:dc="http://purl.org/dc/elements/1.1/"
   xmlns:cc="http://creativecommons.org/ns#"
   xmlns:rdf="http://www.w3.org/1999/02/22-rdf-syntax-ns#"
   xmlns:svg="http://www.w3.org/2000/svg"
   xmlns="http://www.w3.org/2000/svg"
   xmlns:sodipodi="http://sodipodi.sourceforge.net/DTD/sodipodi-0.dtd"
   xmlns:inkscape="http://www.inkscape.org/namespaces/inkscape"
   version="1.1"
   id="Layer_1"
   x="0px"
   y="0px"
   width="140.46899"
   height="113.004"
   viewBox="0 0 140.46899 113.004"
   enable-background="new 0 0 500 113"
   xml:space="preserve"
   inkscape:version="0.91 r13725"
   sodipodi:docname="metro.svg"><metadata
     id="metadata3522"><rdf:RDF><cc:Work
         rdf:about=""><dc:format>image/svg+xml</dc:format><dc:type
           rdf:resource="http://purl.org/dc/dcmitype/StillImage" /><dc:title></dc:title></cc:Work></rdf:RDF></metadata><defs
     id="defs3520" /><sodipodi:namedview
     pagecolor="#ffffff"
     bordercolor="#666666"
     borderopacity="1"
     objecttolerance="10"
     gridtolerance="10"
     guidetolerance="10"
     inkscape:pageopacity="0"
     inkscape:pageshadow="2"
     inkscape:window-width="1920"
     inkscape:window-height="1007"
     id="namedview3518"
     showgrid="false"
     fit-margin-top="0"
     fit-margin-left="0"
     fit-margin-right="0"
     fit-margin-bottom="0"
     inkscape:zoom="1.727"
     inkscape:cx="291.77294"
     inkscape:cy="37.242273"
     inkscape:window-x="0"
     inkscape:window-y="0"
     inkscape:window-maximized="1"
     inkscape:current-layer="Layer_1" /><path
     style="color:#000000;clip-rule:nonzero;display:inline;overflow:visible;visibility:visible;opacity:1;isolation:auto;mix-blend-mode:normal;color-interpolation:sRGB;color-interpolation-filters:linearRGB;solid-color:#000000;solid-opacity:1;fill:#000000;fill-opacity:1;fill-rule:nonzero;stroke-width:1;stroke-linecap:butt;stroke-linejoin:miter;stroke-miterlimit:4;stroke-dasharray:none;stroke-dashoffset:0;stroke-opacity:1;color-rendering:auto;image-rendering:auto;shape-rendering:auto;text-rendering:auto;enable-background:accumulate"
     inkscape:connector-curvature="0"
     id="path3460"
     d="M 87.42,56.312 69.991,87.856 52.545,56.312 69.992,24.768 87.42,56.312 Z m 35.132,0 -17.439,31.544 -17.449,-31.544 17.449,-31.544 17.439,31.544 z m -70.251,0 L 34.875,87.856 17.426,56.312 34.875,24.768 52.301,56.312 Z M 70.238,0 c 38.794,0 70.231,25.295 70.231,56.503 0,31.205 -31.437,56.501 -70.231,56.501 C 35.234,113.004 6.193,92.384 0.885,65.421 0.347,62.684 0,59.574 0,56.503 0,30.252 21.891,9.771 48.445,2.776 55.392,0.938 62.631,0 70.238,0 M 5.272,58.652 c 1.313,25.563 26.687,46.277 58.852,48.623 2.711,0.192 5.432,0.257 8.166,0.179 31.933,-0.88 57.966,-20.494 61.646,-44.925 0.415,-2.755 0.617,-5.584 0.552,-8.434 -0.113,-5.359 -1.161,-10.52 -3.394,-15.217 C 122.849,21.205 102.402,8.106 77.737,5.858 74.514,5.545 71.254,5.443 67.976,5.522 63.547,5.632 59.242,6.084 55.084,6.846 35.088,10.184 9.117,25.477 5.619,50.964 5.23,53.632 5.264,56.729 5.272,58.652" /><g
     id="g3488"
     transform="translate(0,0.002)" /><g
     id="g3490"
     transform="translate(0,0.002)" /><g
     id="g3492"
     transform="translate(0,0.002)" /><g
     id="g3494"
     transform="translate(0,0.002)" /><g
     id="g3496"
     transform="translate(0,0.002)" /><g
     id="g3498"
     transform="translate(0,0.002)" /><g
     id="g3500"
     transform="translate(0,0.002)" /><g
     id="g3502"
     transform="translate(0,0.002)" /><g
     id="g3504"
     transform="translate(0,0.002)" /><g
     id="g3506"
     transform="translate(0,0.002)" /><g
     id="g3508"
     transform="translate(0,0.002)" /><g
     id="g3510"
     transform="translate(0,0.002)" /><g
     id="g3512"
     transform="translate(0,0.002)" /><g
     id="g3514"
     transform="translate(0,0.002)" /><g
     id="g3516"
     transform="translate(0,0.002)" /></svg>